<mxfile host="65bd71144e">
    <diagram id="sm0LrlD-VWOFZNqX2G9d" name="vnode">
        <mxGraphModel dx="1051" dy="729" grid="0" gridSize="10" guides="1" tooltips="1" connect="1" arrows="1" fold="1" page="1" pageScale="1" pageWidth="850" pageHeight="1100" math="0" shadow="0">
            <root>
                <mxCell id="0"/>
                <mxCell id="1" parent="0"/>
                <mxCell id="4" value="" style="shape=image;verticalLabelPosition=bottom;labelBackgroundColor=#ffffff;verticalAlign=top;aspect=fixed;imageAspect=0;image=data:image/png,iVBORw0KGgoAAAANSUhEUgAAAYEAAAF9CAYAAADiCdRGAAAgAElEQVR4Ae2dv7IsN5Le962kcTRvMHyD5RNoackVaWlMyhw6CgZdGktj6O7Su6aWLp011lWEPEXwXq6O4ncozK1bp/4AVZmJBOpDREd3V1WjgC8T+QGZWei/e1ERAkJACAiBxyLwd4/tuTouBISAEBACLyIBKYEQEAJC4MEIiAQeLHx1XQgIASEgEpAOPAaBf/uf//7y7tsPLz9+9f7lm89+ffn6j7++fPkff335z/9h+8V5Xlz/T19/ePnlp98eg5U6+hwERALPkfXjevq//vXfX403Bv+/HBj7PRLYO16I4Zd/Fik8Tqkm7LBIYEKhPrlL/+d//99Xw//nP2zP7vcM+9XjrCS+/+L9C6sMFSEwIgIigRGlpja/QYBZ/3efv9917Vw18i2/Y4Xw8w9aHbwRjg6kRkAkkFo8atwZAhmM/5ooWB0Qe1ARAiMgIBIYQUpq4xsEcPvghlkb4EzfWRnITfRGdDqQDAGRQDKBqDnnCPzLP/5mGuj1Jg7ICtJSEQIZERAJZJSK2rSJAIa0t9//KmEQqNaqYFOsOtgZAZFAZwHo9nUIYECPcvqvGufo3/G8gYoQyISASCCTNNSWTQTe/Y8PQ7l/zoiF1YyKEMiCgEggiyTUjk0EIIAzozrieYhAcYJNketgMAIigWDAdbt6BGYlgEJaxAlEBPX6oCt9EBAJ+OCqWm8iMDsBiAhuKoh+boaASMAMSlVkhcBTCKAQAc8TqAiBXgiIBHohr/tuIsCmbMU4PuldweJNddDBAAREAgEg6xZ1COAft9ztczQSYQWkIgSiERAJRCOu++0igFtkNMNt2V4IUA+U7aqHTjghIBJwAlbVtiHw1y9z7wNkaeyP6iJjSEUIRCIgEohEW/faRIDZ75FhfNo5CFFFCEQhIBKIQlr32UXg6W6gNcnhFmKLbBUhEIGASCACZd1jFwF2BF0bwajvf/nTry/MunkRlCUzifaUY9/9/ftugWr+ElNFCEQgIBKIQFn32EUgclM4ZtgYdgx9y5O6uKu+/4f3L//V8H+Ka4hO/2G8qzY6YYiASMAQTFXVhkDkQ2EYfwsXC22OSmPVQ2Rt+qSrryEgEriGm35lgEDEKgCXj4XxX3aXVQQuo5rZ/N1rlDK6RF6fPRAQCXigqjpPEYiIBeDC8Sy4a7xXBaxgVISAJwIiAU90VfcuAszQ786S936PYY56+pZVxn/7g19f6GNL/GIXcJ0QAjsIiAR2gNFhPwQwansG3OJ4dECV/ngSQRSh+UlcNWdGQCSQWTqTts0zINzr7xvx3Xu5hvQU8aQDIUm3RAJJBPGkZvz3/+TjPuntP/eMc1gHt5+kb+rrMQIigWN8dNYBAQuXz7oOcvgzFILR67ZZfJdLKIN052yDSGBOuabtFf56C6O4riOLkSQ+4OEW6r3KSatQathtBEQCtyFUBS0IeOTXZ1kFFBw8+sgzFSpCwAMBkYAHqqpzFwGPeECWVUDptNdqgHpVhIA1AiIBa0RV3yECHq6Swxt2Oon7Zu2yuvs9OvW1E3S6bTACIoFgwJ9+u7uGcP17HjrLWDzSYLOteDLirja1IyASaMdMv7iIgEdQuNdzAWcQ4LpZE9bd78QaVISANQIiAWtEVd8uAh4kkHmDNeuniLOuenYFrhNDICASGEJMczTSgwQyI2MdBKc+FSFgjYBIwBpR1beLgEfq5O7NEpywfnBMJJBAqBM2QSQwoVCzdsmaBLI9H7DG3bq/IoE1wvpugYBIwAJF1VGFgLVRzL6xmnV/RQJVaqaLGhEQCTQCpsuvI2BtFMm2yVys+ysSyCztcdsmEhhXdsO13GOXzcwgYLTvpoUufy8SyCztcdsmEhhXdsO13CM7KPMWyyKB4VT0kQ0WCTxS7H067UECmZ+itd4iA/eSihCwRkAkYI2o6ttFwOMp2qxbLHu4vrI+Hb0rcJ0YAgGRwBBimqeRSx+3xWdm2xmL9TMCYMVKSkUIWCMgErBGVPUdImDtJ89qHNn/34LklnVkjn8cCl0nUyMgEkgtnvka5zFD/vqPuVYDHjuIZl3xzKehz+uRSOB5Mu/aYw9febbVgMcqQJvHdVXbqW8uEphavPk65xEchgSyrAYI3i5dOFafFRTOp8uztEgkMIskB+qH9RbLxdD2ThdlW2vrtNDSt8xbZg+kemrqBgIigQ1QdMgXAevtFIqh5L1XBg0rHPYyWrbF6nP2jfJ8tUW1eyMgEvBGWPW/QYAsFysDua6HmXiPLJpvPvMhAPqnh8TeqJAOGCIgEjAEU1XVI+DlEsJoMiOPdJ9897n9n8ovya0HqdVL8hlXIoNffvrt5cev3r98/8X71xgUcShe6BuTj/KddyYFXPvu2w+vv8uMkkggs3QmbptHGuXScDIoyUTyLJ4uoNIXbRrnKcH9ujH6BOMx5lbZXpAFBPLzD756ud+r7TMigW1cdNQZAQyoVxC1GFDevbJqiD1EtN+byJzFPFT1xfB7xXaWeonusILMQAgigaHUdK7GegaIlwOOmRzLcouCoWC5v6zf67MCwhYSO68DQvd26R3pCPrJZIWJUY8iEuiBuu75ikDUaqAMwEIGVwYbM7ZoQ9E75XV2NcX4RxF60cGjd1YHxBGu6OcdWYkE7qCn395GIGo1sB58LPmZfRHs48UMv5RyjNUDPuEIt8+6fQTOVXwQQNae2VxrWbZ+R9+sVq41CIoEalDSNa4I4PZoHSizX9/reQdXQSeonJl2D1K/oq9MVCKy3EQCCRTz6U3w2k/oysDL8BvtE2Q/Ipj9RwR8PfQH4vIsIgFPdFV3NQIYPo8BNFqdzFKjfcLVQhr0QiYZo8z+9/SV2IWXXogEBlXs2ZqNgsst5P9sw2x6c9Yf8vL3DOtoxyEyD/eQSOBMi3Q+DAEUfLSBadle/mtBxQ6B6GwuS13Yq8uDCEQCdjqnmgwQIGNnbwDMfFzZQAbK8/+rYFWZOfvHQo8t04dFAna6p5qMEODP4y0Gyih1QABe/l4jkQxVzYwrgC1dtnqaXCQwlHo/p7FPIQKW98tnFJ4jYZ+ePoUAIAUr15BIwEcXVasBArMTgdUgNoB6iiq8NyXcmo33PmahQyKBKdR/3k7MSgS4gLQCsNPbJz9rwvMPd9yJIgE7PVRNTgjMFixme+g7g9YJ5mGrhUyZEfeelfe8P26wq0UkcBU5/S4UgVmW+qxsVGwRyLQJXE8iuBooFgnY6qNqc0SA5whwo/QcaFfvzUyVFY2KLQKzTA6u6tXyd+jYlRWmSMBWJ1VbAALsPDrS8p8tMeT/t1cMDN5IerA02F6fr6w0RQL2uqkaAxDAqOJb9xpMFvVioK4u0QMgHP4WPZMG0D3InQnJ8sVT35zruQVK69YSIoHhh8KzO8CWy9nIAOOPYbiyNH+2NOt7j9wtiLq2DmQK6UDqtXLFGOMCjHZhEiNpKSKBFrR0bVoEMpABsz/Lx/nTgp2gYVG7zloRerR+cr/aIhKoRUrXDYEAbqLI2RdGAoMk4x+nHsi4dgZ/5zqP1RzGOWJl0LIaEAnE6a7uFIwAxsLDb7x0DQR3Sbd7eXnB737HuJ/9Fvl6kjrupIiVTG1sQCSgYTU1Asy8zgZ96/mWpfbU4HbonHdGEC69WuN5t/usNFp1r+X62kwhkcBdSer3qREQCaQWT3PjPJ8ehwBqg77NDd/5gedzDqxoaopIoAYlXTMsAiKBYUW32XCvTDAMZtQKYN0xD5dlWTHUpCiLBNYS0fepEBAJTCVON/eJZwygRgJeweIal5BIoEZCumZYBEQCw4ruTcOZ1ZYZruV7hr/19Ip11LiERAJvVE0HZkJAJDCPND2ygjCS0XGAPYl4BYrP3FwigT2J6PgUCIgEphDjaye+dNguGsObpXitBs42LhQJZNEAtcMFAZGAC6zhlWIgLV1A1JVpFVAA9VgN8EzCUREJHKGjc8MjIBIYXoSvHfCQY03QNBo9j6ehyag6KkORAL4tljY/fvX+hcei+Vu1o9kBTM91/OsOv/n5h/rNn45A07lxEPAwHtSpEouAR1C4d0bQHoIemUJ79+J4ahIo+8BgyDHoRwa/5RzkATFACipzIyASmEO+Hm6SLAHhtYSi+5qOBIrhP5vltxj9o2shFxHCWg3n+S4SmEOW1plBZy6SnqhF62waEnjd7Otz3700jsiAc2QfvPtWfwHYcwBY3zt6QFm3X/X9joD1k8KZScAjLsA42CvdSQA//zef2bl6zgx9zXnIgBiCyvgIiATGlyE9sCaBTKmhWxKqsVMt16QkAfxx33/Rd+Z/BiJkcATelvB0LBcCIoFc8rjaGpHAvYnyURC8y0qASL9loPfMmN89z0olaxDp6qB6yu9EAnNI+mkkYP1g3NHKJ5QEMKQEYe8a5R6/h7S0KhjPoIgExpPZVoufRgLWNu7IdoWRAL7/qIwfawCX9eHCUhkHAZHAOLI6aqk1CWR8UGzZ/6XNsfjcnQRGc/+cgS730FJdc38WCeSWT23rrEmA+rKWaJ11Xwl4/nPOmbH2PM+qRnGCrMPoY7uiB9THO+uTJQLWD1Dhc89aPGzm0U6iriTg0RlPw95at4gg6zD62C6RwEcsRv7k8beSR4axJ1Ye/zR21B83EpidAAphiAiO1Kv/OZFAfxlYtMBDjkcZMxZtvlqHdeYk/518VFxI4CkEICI4Uq0c5zyMB3WqxCKA67WMN6t3JnDZisdGeWfxD3MSYIllJaSR6iFYrJIPAZFAPplcbZH1DBn7ko3Q2SzT2u6d/X2mKQnA1h6CsgbFq76sy8urg26G34kEZpDi732wzhDCDmB0sxQPXaWPrC6OiikJeLCYl8H2qjfbzOJI+E845zGwJOM+muMRHK4xklG99bKfZ1mMZiTgJSAvY+1VL6lnZ6BHKZXu8/K63LeWtUigj2Z57K6JbmQYs15xVP6g5qyYkICXcKwHb1R92Z9GPFOKmc5rJTCTNF9ePP51C7vQ0y3kGUdlcn5WTEjAaxkTZbQ97qPZ4pnqxZwXCcTgHHUX6z+XWY79swCqRx+946hM0M/KbRLwGGRLwRx9/suffn0hGMuLdpQXSyuOIVRyZI/q8DrXc2ZxJvQnnffQT+pU6YOA56wZW1Azc7bqOQRAmqqXDapxBdGX2yRgveXpESBkHuFqOYt2r4UEGyJcr6XkXpshI5W+CIgE+uJveXcIwNNolnHMTsfecT364p1JWWt/bpGAVzCjCGP5jvG3EAxtjlodZN6fxHJwZq5LJJBZOvVtY9x6G82lvfHcCSDCboJVrb28RQIRsQBcPjV+rXp1+v3KKKWS66BVMrbXiwRs8YyuDUPW6+9nMaT8zWytMT3DBl2MsJmQWcszS5dJwGNwLZmYz96BGpZk3qsCxQbOhobveQ89pU4VfwQYn5Hu5rX9Kd8LGVydjP78Q5zxp80tqwCkeJkEPHa6W4LOTD2iwPIeTyKWvvB+VXki+j/7PUQCY0qYGfhyDGX5jJuIP5b65affXiCprcK5d99+eP0XRQxydNtbVgG0/xIJYDg9O9Ya+N0SROsxz6Cx94qmta9Pul4kMJa0sS1RLhNPG9arbjwbre6rSyTgGdiITNFaDg+A82JtBYiXSMd+FgnE4n3nbkz+vMZgL6Mcfd8rE+hLJECw1qNzvZ+09Uzb2ls63hk0+u05AiKBc4wyXIGLxcOmPKnOsy2j9+R8iQQ82Jo6W5cxe526cxx/mofi9Frh3MFiht+KBHJLkclRRO6/x5jOVOcd+9lMAgjNo/NRgeCzIQEReWQMsXpSiUdAJBCPee0do9K0PexVtjrR86ulmQSY0VoDgNHNVDxiHjC1SjwCIoF4zM/uyESrV+6/te3KUF9rNtBaPs0k4BEPyLIKWILjsRpQXGCJcMxnkUAMzrV3YQxkyP3PYLwt2mARR20mAQ//XYZYwFqJSeu0ENKyjiuR+3W79L0NAZFAG16eV2fN/V+O0ZE+W7mYm0nAGqSrEW1PZaVuDLZ1X+8u27z7PGP9IoH+UmWSp9x/24xKnmuymjw3kQBPvlobxsxZM9ZZUBZLt/5DeqwWiAT6yku5/7bGH/vLCsCKANCOJhJ42oCy3k4i66qnr5nwvfvTdNYXzbbalftvTwAeE8nuJJB5Xx0At1z5iATajIjF1SIBCxTb6siU+48L1iO+Z2kXauvycid3J4E29Yq9GtBrBVRznUggVn7cTSQQi3mW3H9cuci+lCztqrET62vWfSl9snpvIgGP/HmrjnjUY00C2kPIQ0rHdYoEjvGxOouPmn/kWhuwHt/3fOZ4HaxdvN79o72W/v8teTeRgMeDYluNynLMmgT0wFi8ZEUC/phnyv2vSTQZYVXAc0pRKeVNJOAxoPxV9PodrElA7qDrsrj6Sw+dpU6V3xHwmBhemV2TMtnyMCaza+vxfaXd698wUaRd3rP/pf52J4HIzi47XvNZgeEalHJfIxLwkQ/jNkvuP+P0qh3BRWQ9zteGveZ7D+NfNKM7CWSeVVn7D7USKGoX9y4SsMcaTDFaNcbN8xraYOUygURY1XhsF3OEASsY7nuVxCyk20QCeljsnuIz41CJRUAkYIt3ltx/jKdXejluJdJKvQihGH6v9rdKvIkEqPyI1a6cs9r/orXjZ9ejCFf6c/QbfH0qsQiIBGzwxmB57Bt2NF72zkX+XSv9JpDMPa94Blit8Dt+z6ql54x/TxOaSQAW2xPO1eN7jet5HKFd7c/e76yWrj1xGe3eIoH7EsuSTYNBRZ69C4acdpQX7hwmeIzvcixDO2txaiaBK2y4ZxTL8YzG0WPWM5Ji1CpQ9uvAvOiZ1ftT5Iixy5L7j93JOIvOrv817WsmAY+0KgxupuLxUBwGSCUeAZHANcxHy/2/1kv9CgSaScBjUGEgMbxZisefXjCTUYlHwENfZ18JZMn9JzDbkvsfr11z3LGZBOi21bJ6WU+WLRW8VgEKCvcZMCKBetxxt8yQ+1/fY10JApdIwCMuACFERv23xE8mgFf+8+yzxy08MxwTCdRJAZy8dH852Tv7TBsyeQXq0Bv7qksk4DVbRkF6KQCzII9gMH1iWavSBwGRwDnuT8j9P0fhuVdcIgEM5hmjXz3PTKCHH9AzC6L3Cue56q2tpI9k/9Tc/yNMnnjuEgkAFA95XTX0Z7+LJgJPAqCvPUjticq81WetBLZQeXldcWdx/yAjlX4IXCYBT5dQIQlv15CnC6j0Qa6gfsrNnUUCn+KPzntPeorun70r9/9T2fT6dpkEaLDX3hpL5cFfieJaF4yDRyrosu189iYya1xmq08k8FGiyv3/iIU+fUTgFglErAYwpCxbyV22KPhBo9LgtAqwkNi9OkQCv+On3P97ejTzr2+RAMBE+hWZuaPMGPLW8vMPv4Uvg62Iq7Wvuv4jAk8nAVbRUZOe9Sp4/f3Ovv8fJapP1gjcJoGo1cBaoSAEXEXvvv3w8stPv72+AAeCKN9//Or9yzef+QWw121aftcqwFpVr9X3ZBKg75GTtKX+Lz/TBrlFr+lvxK9ukwCN9Hp4bKlIo31mAKr0R+CpJKDc//66N0oLTEjAY6CNZvSX7dU+QXnU30M3MxO8cv/z6N4oLTEhATrrsf/+0rCO8pml75WYxSgKM1o7n0QCuFyyuH8yE+VoOuzdXjMSoKEefzgzivEv7cz43wjeSpS5/ieQgHL/M2tg/raZkgAz4AwzkWKQo9/1H8L5FH52ElDufz6dG61FpiRA53tlC0Ub/PX9WAV5PNQ2mkJlay8rs7Ws7n7nidsMW4Eo9z+bto3ZHnMSAIanEYEIIJfysyLFQHrtCltIhFUvhMAzKJFFuf+RaM9/LxcSADZcI2WwzPyOIcgwK5xfVc97yDMj3oZ/T5fRA55L8V4N4t7K4HKlDcr9P9fJEa5wIwE6PzsRiAByqDjGP2IfqD0CWB9ndeCRIabc/xz6NlsrXEkAsLL4LdcD9e53XEBaAfQdDtmM/1qnIAOLlQGE0muFs+6T/hujr8573N2dBGj0bDECxQA8VLG+Toxilv1w1kZy/Z3V4p20YcZOFvePcv/rdXSkK0NIAECYNWdQ5vUgbf2uTbD6qjcryxH1iD2sWlxErCBYSbTqp8f12ve/r8573z2MBOgIg2DUfYYwPBgglT4IZMqIuWpo0aGaVQETpiwxDul8H32PvGsoCZSOZVni1g5m/krTwrdb+q/3NgQyGcVanTm67iirJksMjV1wFfNq09NRr+5CAoCFUfX8n+KjQVh7joFQM3MbVfgjtDtLSmStztReR6bPsmRa6cjluZTM/J+7kUCBlkGezUWE8T+arZW2690XAWRQa1RHvA6fPyUL0eGukt776nTG2ruTQAGFpWfv5wpk/Is0+r/PTgCFtLJkOZHx1hK47q8haoEVAmlIoHQIRfzrl+9D/sSegcjsh9xn+T+LBPq/I4tiJPXu/894yv3vr/M9W5COBJZgQAgEyrzcRfL3L9HO8RkCgJhl/P0xAGfl/ufQ+56tSE0CS2BQVmvDsKxfn/sjQHA0S2qkta5lq0+5//31PUsLRAJZJKF2vPBAVTZjOWN7lPuvwbZEQCSwREOfuyGQJT9+RqNf+qTc/27qnfrGIoHU4nlG44j9KA7guwpS7v8zxtKVXooErqCm35giIDeQHwFArsr9N1XX6SoTCUwn0rE65BHwL+6Ps3fcIwRISUlev3ia3Ssr7axdVueV+z/WWOjVWpFAL+R131cEorOBMO7EH2ofjCJjiZk07pSRXFbK/dcAq0VAJFCLlK4zRyDyqWBm9XcfCIQQWDFkJgPaptx/c1WdukKRwNTizd25iC0TcIlYG0XIoPcWJ1suI+X+59b3rK0TCWSVzOTtiogFeGfEsJLJsipQ7v/kA8axeyIBR3BV9T4C3tuIRxnF3ttcKPd/X8d0pg4BkUAdTrrKEAHcKVvuDKtj0SmR9KfHisB7pWMoclWVGAGRQGLhzNo0z4Bwr6yYyJ1PIZxooptVF9WvlxeRgLQgHAEvVxD19iye5FZWScr97ynhOe8tEphTrql7VQya5TuzY9wyvYtn1lCvVU5vTHV/XwREAr74qvYVAl5ZQeTvZyg8hGZJbqUuEUAG6c7ZBpHAnHJN2yuMdTFsVu9kyGQqGGyrvpV6eru6MuGrttgiIBKwxVO1nSDgsR9PtiCpR7bQn/+Qi+hOxKzTAyEgEhhIWDM01WOvoAyxgLVsPILf63vouxCwQEAkYIGi6qhGoLg3rN5ZWWQsHplC1ttfZMRNbYpHQCQQj/lj7+iRSx/1ZHCr0DwCxFn72oqNrs+FgEgglzymbo1HZlDm2TE5/VYrHurJkgE1tZI+sHMigQcKvVeXPUigV19q7msdBBcJ1KCua1oREAm0IqbrLyPgkR56uTEBP7R+cEwkECC0B95CJPBAoffqsjUJZHs+YI2rdX/1rMAaYX23QEAkYIGi6qhCwNooZs0MKmA8rb+l33ofCwGRwFjyGrq11kaRYGnmYt1frQQyS3vctokExpXdcC33yJ3PDIICw5mlo7YVBEQCBQm9uyPgkR1EPn7WIhLIKhm1a4mASGCJhj67IuBBAv/yj7+5tvlO5db/NoZ7SUUIWCMgErBGVPXtIsAeP5YPT1EXaZgZiwfhZdsoLyPualM7AiKBdsz0ixsIWJMAG9JlLB7bSbPthooQsEZAJGCNqOo7RMDaTw6pZDSOHrulHgKrk0LgIgIigYvA6WfXELB+ijajS4g4hfWKh32IVISABwIiAQ9UVecuAh5potlWAx6rgKyxj11B68QwCIgEhhHVHA312GIZEvj6jzlmyl4kp22k59D/jL0QCWSUyuRtYs8fa3cJ9fXOnvH4W8mCU+bnISZX1+m7JxKYXsT5OuiROYOxJC+/Z5CY/wEuRtvyXfGAfDo8U4tEAjNJc5C+ePzDWDG6+ON7/Ofwd5+/dyEA+iVX0CCKPWgzRQKDCm70Znu5hDCazMgjieDHr/wIgP7IFTS6tuduv0ggt3ymbR2z2zJ793iPcA1BNN985uMCKphk3y57WgV9UMdEAg8SdqauegZRiwGFCLyCxczOvWIApf28s/2EihDwREAk4Imu6j5EwCtAvDSifCZ91MqYQl7ff+Hr/intz/7PaYfC1clhEBAJDCOq+Rrq9cxAMaLr91cy+OnazJq24vu33hl03cbld69VzHyapB7dQUAkcAc9/fY2AlGrgaVxxZCTzfPu2w8vv/z022YQmQwmzjHr93gCeNmerc9aBdxWLVVQiYBIoBIoXeaDQERsYMvIZj+W+X8SfDRBtfZCQCTQC3nd928IeG21kN3Q77VP/yX8N9XQhwAERAIBIOsW5wh4bDG9Z2QzH8dVxepIRQhEISASiEJa9zlEQG6h3583kBvoUE1SnCRJgHhRefHMC0kDJcZUjqdobEUjRAIVIOmSGAQ89uHPPOtft03bRcfoWctdSBDAyPNQ4JXnQljZkZVGgsHPP2wnIbS0x+NakYAHqqrzMgI9soXWxrjHdzaJkxvostqY/hBjTfaYVzowZAIpsKLIUEQCGaSgNnyCgMe/j/Uw7LX3JB1UBPCJCoR/Ycbvafj3dAFCYKXRU/4igXB10w1rEGBmvDdwZjrObBMDpNIHAZ4kx13TW6fQA+IKPchAJNBH93TXEwQYDLMTgQjgRAkcT2cx/lvkE00GIgFHRVPV9xCACMiZ3xooox8TAdzTjau/Rqc8//vBSi95Sj0qU0wkcFWb9LswBGaLESgIHKY6n9wIowr5WhnqiHpwVXm7iEQCn6iJvmRFwPv/ByIGNPfgoTjvQZ1Vhr3aNcrsf08HIS6rXXC3ZCAS2EJFx1IiwEDw/EeyvUFodfyvX75PievMjSLofiW/30rmlvUQK/AoIgEPVFWnGwLM6kZ7lgD3jzKA3FRit2IwH839c0YaxDOsi0jAGlHVF4LACKsCDBBuLJV4BNCP2QigEIR1nOJzr5kAABZ5SURBVEAkEK+fuqMhAuxAmtFFRDA7yxOhhnAPUdUTth/BxWUVWxIJDKHWauQZApBB7+cKmHni97canGd91vm3CMzoAiorgPU7KwKLIhKwQFF1pEEAI0DMINIVAPn0fvQ/jQA6NgTyjZT72ij3+G4RIxAJdFRa3doXAdwCXg+bUS+rD7l8fGVYWzsEMEsWUCuZMOm5U0QCd9DTb9MjQICwdVCdXU+dKrkQyLD/z5neeJ6/o5MigVy6rNYYIyASMAY0YXWzPEh4hyRwg12NRYkEEiq1mmSHgEjADsuMNeGOe1ocYI8srgaKRQIZNVttMkNAJGAGZcqKnu4GWhPClU3nRAIpVVuNskJAJGCFZL56Mj0PkOVZFXYfbXULiQTy6bZaZIiASMAQzERV9UoHJR2YZ0HQqz1jS5oyBMUDgz1cVa17VIkEEim2mmKPgEjAHtMMNUYGgzHkdx4ChBS8UpXX7qDyfY+gtmQnEthCRcemQUAkMI0oP+kIbo9i8Lze7xr/Txr88vK6emArca/2LuttWQ2IBNaS0vepEBAJTCXO187wkN7S4Hl8xu3TMptuQZn2e7uJqL+2/SKBFunp2uEQEAkMJ7LTBntnBOHL9y4RexzV7mArEvCWturvioBIoCv85jf3kOdyJcEsPaowU/fc9JBtNGpKehL4+YffXr7/4v2Lhw9Q+77UqMjY13gYDepU6YOA5x8K3d2D5woiEIGna6jGxqUkgXfffnj55rNfXcEp7M/SkvvV+s+uCFq/6YeASKAf9h539pgMYgvI3ulVPF1DNQHiNCSAEeY/NL2EXIz+0TvEo1ler6Hgc1+RgA+uPWplVns0fq+e8wwC1+LkFeyucQl1JwEEy57YnkuiVuVgdSAyqFXf3NeJBHLLp6V1Xs8GZBnrXumjZ16OriTAzL/VQEdeDxmwVFMZFwGRwLiyW7fc44ErDG+W4qGr2Muz/YS6kACdHekPICArlTER8BhY1KkSj4DHBDCbLD1WA2cB71ASYFlCpo+HML3rJFaRTWHih+F4dxQJjCezrRZjO6zHOLGAbAXPg3U/z1Y7YSSA73+k2f+eICAxlXEQEAmMI6ujlnrIsSZz5qhNXues46PUd1RCSMAzBWrPWHset/hz5yOh6JwdAh7GgzpVYhHwyJ7JGu/jiWVr+3UkLXcSiNgnwxqwmvpY1ZxF3Y+A17kYBEQCMTh734VZe824rL2G/f+zFg/CO5q4uJKAR2dqhRxxnYgg6zD62C6RwEcsRv5knRl05ifviZVHXKALCcxOAIVkRAQ9h8v5vUUC5xiNcIV11kzEJnF3cC32xeo9nASeQgBFQBCBSk4ERAI55dLaKmsSyBoULrgU22L1jk3eK+buoNmCwLVCULB4T8X6HhcJ9MXf6u5PIwHr/yw+Ij1TEiBQap3eVGuEM1x3BLTVYFA9bQiIBNrwynr100jA2p4d/beAKQmwAZt140erL2vaWdbB7d0ukYA3wjH1iwTu2VbGwV4xIwGvzZ1GIwGeLFbq6J66xR8XCcRj7nHHJ2UHeeyW6k4CHo0ezfgv23u2V4fHIFGd2wiIBLZxGe2o9XMCmZM5onXWZCXg/Z+fSwM7yme5hXKYmegBlaPX87XCI+Mw64rdmvCwmUzU98ptEvAYZLWGniUigPGiHeWFwnCMGbl1lL22bRCjSn8EPPSTOlViEfCQ41HaZGzvPr0bq5RaO1N73ad3+PTbbRKI/CcwMo94yONsf+xPu/jyyoLELDz/1HlLGDIWa0nEf/cwHpJrvByZtW+NsTvHMj4w5uFaJ6h+VG6RgMcSbU+oCOxoSXPUyeU52hy1OtBqYIl8n88igT64e9x1zzZcPc6kMptLyMMVhMfkqNwigYhYAB2wMP5rEFgZRDzToFnjGvnY7yKBWLw972adIQR5YHSzFAjJwyYdPSNA3y+TgMfgWjO6d5YNwVvvVUHGJWcWpY9oh4eeitgjJPf2Hh5p6Bhdj0nm29afH/FYBWBTz5JULpMAxm1ttK2+I5iooA3sa/0gyhqHbEvOc3Wc5wqRwDyyxJitx5bF9wwTNa9VALb0rFwiARpsAf5eHa2B37NO1pz3DBqfLcdq2qdrriEgEriGW9Zfea3coyade7h6ZARhX2sI7hIJeAaEe/novJgYQZxF5/cUQ8fvIyASuI9hphq8PBDMmM/cJl44sPnk3oT47vGaCfUlEvAI0NSylpcgqBclQBnuAr/1e7mEPCW3X7dIYB+b0c4gS8+UdMZ+9Dj1iHMU+1PjCkIHLpGAh6HsIYCtQeAVnKlh5K326Ng9BEQC9/DL8GsMc9TmlNihqBXB91/4rQBaJtXNJOAVnMniN0fhPPyONb65DANutjaIBMaW6LtvY1K5y+yZd4jAM0aAjYlIr6/NemomAY/lC0Y3U/GIeWTesCoT9tZtEQlYIxpTHwYswlAujf/6M776WkNaiwoeAU+XVulDSxyymQQ84gGerFsrnPV1HquB9T303R8BkYA/xtZ3+PGr926xuWIkW95pz91YAXoYSWrcr7Y0k4BHKtNdgGs723IdD6q1KErNtVG+xpZ+zn6tSGAcCTM+POxLzdg8uwYXEXEJ3FO19or+QCDRfWpZBaAdzSRwBlbr+dYGR6k0y7bWvpxdn3HFE4Vnr/uIBHohX39fjKp3kPRsbLaex7Azs6fdGPrywoXE8QiXz16bWyebTSSAf2zvxlePZwkIb6ks7H+1X1u/6/UMxFbfnnJMJJBb0sinp8HcGqcjH7uSgNJEAk8bUKxSLBVCJBBvkJ6ms/EIX7sjs/+otE/LMZy5Liatta6qpdS6k4B19H3ZubufrZ9O9N4Q725/Z/y9SCCfVHukfWY23lZtu/osUncSyKeiH1tk/eBY1vjHxx7P90kkkEemGdI+rQxutnruTDCbSMAjfz6Pir5tiUjgLSajHREJ5JAYgVPrGFs2Q9yrPWx+ecUNVDSjiQQ8HhQrDcn4LhLIKJW2NokE2vCyvjpz2mcvo215X4i1NRtoLeMmEvAYUOsGZfouEsgkjWtt8dBZ6lQ5RmDEtE9L4xxRlwUBIMXuJHBnGXOshvfPWj8wdiV9634vnl2DSCBe/mCutE/bzMItUrm7Aiia0Z0EMs+qrFNEecDk5x80iyzKF/EuEohA+fd7MKFT2qe/8WcFcDUTaEsbmkgA5tlipDvHnvSwWMGJWRJpcir+CIgE/DHmDkr79Df+2A8rF9BSK5pIgB8WQ2b1zoZ0GYsH4a0xQ6BkTWR2iWWUTUubRAItaLVfmzXtk1U8bUP+jLP12BvxO5taWrmAlpJuJoGn7K5pHQ84UjqU1GPb2qWgn/pZJOAn+Yxpn4yltXcBMvD8D/GjsW11jsmy12SxmQSs/eSAZOnfslL56J3/irJABhguFRsERAI2OC5rYTbaa3yUcbL1fmQoMaCRE7ut9l09tia1pSwsPjeTgHXaJMCgUJmKx0NxrQrAToQKIt/XCpHAfQxLDa+G1PkvEVvHCdfjnaidSKIPHt6MK+0++w0Tbg/3T5FneW8mAY9BBRiZtlnOlN6mIHJR1WvvHvpKnU8r9DnTuCgGlNl9q5uE65nMZo0V0K5Ie9hMAih/EYDlOwqWoWRYBWzhimIoiNyuISKBdsyWv8BgZkz7xMd/l4xfVzYOfx61NX5rjjHGIadWUlvK68rnSyTgERcAJFi9ZyGAlHV2UJSI9imIXK8lIoF6rNZXZk37xFBalrIy6OUm4r5MPqONf8HwEgl4zpYjl0EFBN4RQMZgVzH+W+8KIi8luP1ZJLCNy9HR7GmfR22/ew774/E/6uvx+zqZ+/v3IT7/M0wukQAGc90pq++AExEMWQODQbXqQ3Q9CiKvpfnxu0jgIxY1n0ZJ+6zpy51rsHEQAt4Jq/RSPCisYu66se70a+u3l0iAijzZMpoIRiaAJeEoiPxWxUUCbzHZOjJi2udWP7yOQQroEumaGHLsH0Z978U+YVxH1lI2o7/G6DIJeLqEimHzdg2N6AIq2By9Q6IKIv+u6gzCI6yunHt1w/00R4YQYyDjn7y3pH2ujZq+tyFwmQS4TUQgBQVFUa0L7Jwx5e2KUdr7zavf8fP3r4/PW+OXuT582szYvGM8BV+e5/DQUW+Ms46BK2mf3ljNXP8tEohYDWDgGGxWG65lDXrtGXKr408IIqMj3oZ/Tx4jrb4grFnTPmc21l59u0UCNArl3xsY1seZuTPDw5C3FmZrs/j+7+A6YxAZ459pVYeeXdHRVp2+cv1T0j6vYPPU39wmgajVwNrwMehxFWHcf/np9xdCZPCV7xBGxhnPui89voOf1eqq1+DJZvzXcoQMsriJsq6ACaxmJcxeeh1939skQIMR5HoA6PsYmIzkxiiDI6tB29J58K3d16b0z/pdaZ/WiM5VnwkJEGDaGgA6NgYRICeMVWY3Rhl2GLQR9Qo3XPSMN3PaZzQWRX/0/hYBExKgWiL6Iw5O6zZjTCOypqzbvawPMsiW24xbpVfQd4nNnc9RqwKwypj2GdX/t2ZOR44QMCMBbmL1ZN2dgdb7t2XpjxEd3U2WJYjMjBYD0lu2Vvf3fP5FaZ9H5k7nthAwJYHZBmvroN/aAA9MeHqwta5M1/cMImPUZiKAIldWW5Yla9onq+Jsq0pL3Geoy5QEAKRXtlAZXL3eWQUdFXygkMTIBo22Rz6JPLsuWWUPKe3zaOTp3BkC5iTADWcfvGuigQBqUwG5jj1FRo4bQAbeQeSn6NCdFUHWLCncoKyAVcZAwIUE6ProLpC1od/7jkG8qvAYupHJAEwwYtbLfY/9fvbkl+H4FSJQ2ucYBnaEVrqRwBOI4A4BLJUDIzpDENmCDJ4aV2JCUFPAJ2OWFLtqKu2zRoL5rnElAbo7a+qoFQEsVYIBPvoK6k4QGVdZRgMXtVo4IlGwUdrncrTosxUC7iRAQ2fz77bEAK4IaoYgMmTQGkSedcJQSyJMLLZiS5ADeNbWE3Ud8tpq7xWd12/6IRBCAnQPPy9KHqWgXvdh2Rul+NxnhiAyM9gzVwGGzktmI9XLXlelIP+Me18p7bNIaI73MBIALgzByA+UsSFdrzJLEHkriI6xyzjT7UUeTJiU9tlrpD3vvqEkUOBldttrgF25LzOfLeNV+hP5zox5tiDyaPpwRYdG/43SPiNHeey9upAAXWRVkN2Y4b7qOfs/UoVZgsjg28tAsirFvQcJ8WIGXj7j786unxG4ZR4DR+ND5+oR6EYCpYkMvIy58mTpRPn+CxZX3mcIIkcYs3IPjD6utbMYxVIW6Cj6MENMq+BQ8660z6UWzPu5OwkUaBmYvWdeDHJmgC0GorS/9/sMQeQaw3T1GguDVjCenQzoH8Sn8gwE0pBAgRufd/SsC7cAbokRZv4Fp6P3GYLIV439+nfIFp2yLIUM1vea4bvSPi01ZYy60pHAErayDPdwF7HqwPCPOOtfYnT0eYYg8h3DymTCs0C2s6wKlPbpqSm5605NAkvoMNYMOgJ3GPAWYuB6DAK/tZ4VLtuY9fMMQeRWMogK6INtiy629iPiesaFynMRGIYEjkTEQMS4L1+zuHaO+t16DiJluT/L7HXPQDJZiCzo2oiYMjli7Kg8G4EpSODZImzvffFpjz6D3SIBSK5HwZiOQgS0M2ql1EMWumcbAiKBNrymu3qmIDIZQD0LWG4RU6ZjFllSPTHWve0REAnYYzpkjaMHkZndZnABEnvKZPRLW8BHaZ9DDk33RosE3CEe6wa4NbIasmLQtt6zuDeIu2y1r+cxpX2ONQajWysSiEZ8kPuNFEQmtpGpkG3T0+iXe4PLE7PhMunCCG0RCYwgpY5tHCGIHJ0NdCaODNlCSvs8k5LOFwREAgUJvZ8igLHNuBV4hljAGjwCsGVGHvmutM+1JPT9DAGRwBlCOv8GgUxBZIxexhKdKaS0z4xaMEabRAJjyCllK4kb9A4iZwkIrwXE6iRqBaC0zzX6+t6CgEigBS1du4kAZIAPmtlolOEr98n8xKu360xpn5vqqIONCIgEGgHT5fsIMPtlZh75JPJ+a/qf8YwLKO2zv3xnaYFIYBZJJutHVBA5Wbc/aY5HqqjSPj+BWF8MEBAJGICoKvYR8AwiZw0KFzSsSQD3kooQsEZAJGCNqOrbRIC4AUa7+PIt3p9GAtn7uyl4HUyPgEggvYjmaSDxAgvjv6wjMzrWKwGRQGZpj9s2kcC4shuu5biGlgbc4nNmEJ628sksC7VtHwGRwD42OmOMgAcJ4GbKWqxJgJWFihCwRkAkYI2o6ttFwIMEMm+PbP3chEhgV7V04gYCIoEb4Omn7QhYuICWdfDEcsbiQXjZNsrLiLva1I6ASKAdM/3iBgLWs+Mvk20jXaDhYa4lWVl8hlhUhIA1AiIBa0RV3yEC1n5yjGvGrSMgJwvDv6wj426ph8LWySEQEAkMIaZ5GukxQ/7ms1wPUXnsIJrtj3Pm0Uj1RCQgHQhFgEDucnZr9TmTq8RjFZA19hGqPLqZCwIiARdYVekeAl5bLH/9xxyrAY9VAESZdcvsPTnr+DgIiATGkdU0LfXaYrl39gwEZx34LiuljHGPaRTy4R0RCTxcAXp03yMugLHEAPcylhDAn/9gHwymX4oH9NDS59xTJPAcWafpKU/5lhmu9TtE0COL5rvP7VNCCzZ6SCyN6k7ZEJHAlGLN3ykvlxCGkxl5JBF4EgD9ybw1Rn5NUwvPEBAJnCGk8y4IeOwoWmbOvEe4hiAa0lOX97X+rJ1DXdRPlS4QEAkswNDHOAQwoF5B1KUh9goWE3vwigFEtD9O0rpTdgREAtklNHH7rPfbXxrP5WfSR62eI8A14+3+KW1XQHhi5U/UNZFAImE8rSmsBorBi3iHDH7+4dr+O8z8f/zKL/i71X+vVczT9Ez9PUZAJHCMj846IxC1GlgaWdxQ+PLfffvh5ZeffnsTeIWcOA5hfP/F+xePJ4CX7dn6rFWAs+Kp+r8hIBL4GxT60AMBDC4Gb8sQPvmYlfuqh0x1z7EQEAmMJa8pW+u1n9CoJPKXP+XYAmNKZVOn3iAgEngDiQ70QMBji+kRSQBXlZ4L6KGBz72nSOC5sk/V86iU0ezEoGBwKrV8RGNEAo8Q8xidxA+e3Uh7tk/bRY+hp7O1UiQwm0QH70+PbCFPw15bN9tosBpSEQLRCIgEohHX/U4RYEZcazxnuI44gAjgVC10gRMCIgEnYFXtPQSeEiiGAHptf31PQvr1LAiIBGaR5GT9YGbsudNohhWECGAypR20OyKBQQX3hGZDBOTMZzDY1m0QATxBg8foo0hgDDk9upWzxQhY4cgF9GiVTtV5kUAqcagxewjMkjVErENB4D0p63gPBEQCPVDXPS8hwHMEuFGsXTNR9UFkKkIgGwIigWwSUXsOERgxTsAGedoQ7lCsOtkRAZFAR/B16+sIsOncCLuPMvuX++e6nPVLfwREAv4Y6w6OCGBkM7qIyGrSRnCOglfVZgiIBMygVEW9EGCmnYUMyGSS8e+lCbrvFQREAldQ02/SIsAunNEPmeGW+v4fZPzTKoUadoiASOAQHp0cFQFm4//09YcXr+0niuFXvv+oGqJ2FwREAgUJvU+NANk5uIwghdaVAjEHfoerh5WG3D1Tq8rjOicSeJzI1eGCAMYccjh6lWv1LgRmRUAkMKtk1S8hIASEQAUC/w/dAAa/SE+EvwAAAABJRU5ErkJggg==;" vertex="1" parent="1">
                    <mxGeometry x="106" y="141" width="207.15" height="205" as="geometry"/>
                </mxCell>
                <mxCell id="6" value="" style="shape=image;verticalLabelPosition=bottom;labelBackgroundColor=#ffffff;verticalAlign=top;aspect=fixed;imageAspect=0;image=data:image/png,iVBORw0KGgoAAAANSUhEUgAAAVcAAAFaCAYAAACqrx7GAAAgAElEQVR4Ae1dzc4lt3H1A8VQ3sB6A+sNrDewAG0dRAtrGUQrLT3aWbvMVqsIWmYWWUSbwBIMCBMIgyjKQBASBAjwGed+5kxPz+X/KbLYPAQuum//sMlTxdPFYpH9iwclISAEhIAQoCPwC3qOylAICAEhIAQeRK5SApcI/PzlNw/4/fDRF9Hfy8+e3a75vz//l8s6qFB7IyBy3Vv+LmoPcgRRfv/+5w9//tt/ePj3v/mw+venX/7dw/P3ntyIGKSsJARmIyBynS2BTZ/////9PzdCbSXTHAGDbEHW//uv/7Epwqr2bARErrMlsNnzf/7nb24WZo4cmee/fefjm0ULQlcSAqMQELmOQnrz56Dr/927n1Z395kkC2sW7gclITACAZHrCJQ3fgZIFb5QJkn25gVLViS7sVIOqrrIdRDQOz7mx0++eoC12EuGVvfDklakwY6aOabOItcxOG/1FPg2vVmrMYIG+f/0T/+2lXxU2TEIiFzH4LzNUzA6j253jMy8Hn/xwdNtZKSKjkFA5DoG5y2egkgAz26AHLEjdEtJCLAQELmykNw8n5dP/mU5a/Ue2SLuViFbmyszqfoiVxKQO2dzFWINZCuC3VmbeXUXufKw3DIn+FgDKV1pKxfBlupMrbTIlQrnXpmBWFf2seZeBiLYvfSZXVuRKxvRTfKDX9JqXYAc6Y08D5eHkhBoQUDk2oKa7rktijKS5GY9C5a5Fn+RwrcgIHJtQW3zexB0P4vsZjwXFrqSEKhFQORai9jm18MdcGU/a4y8//Pvv9hc8qp+LQIi11rENr/+xW+fDrdaYTl+96tP3/j96Ze/G1oOvFAU/7q58ldWX+RaCdjOl2ORk5hlxzwOMoWlmPN1guww4PT9b/74MIJs8RwlIVCKgMi1FClddyMxJome84J1iim0LQlEC0K2JlmtotUinT3vEbnuKffqWltarbBUW0n1XJFAsmfiZv2X9XpGXP9jCIhcY8jo+BsIgFRYBHXM5/mv/2Diy4S7wMqKle/1DdXQnwgCItcIMDr8JgIWEQIYHLNM8Nl++87v6S+FH//xK8tiK++LICByvYggLathEdc6qnv9OEWXG1mguFdLbbtO3iLX68jSrCZslwAGrkYm+HOPrgjGvga2RkpwzWeJXNeU29BSM8go5IFu+gyfJbryoQyMrVwDQ1VwyYeJXJcU27hCs62+mQuhMP2vGIhTEgIpBESuKXR07hY7yrD0kAfIbWYCsbPqggE+JSGQQkDkmkJH5x5gobEIaabVGkTJtF5zM8jCM7XdEwGR655yL64160uuiDn1kJi+V32S24NE/ZZB5OpXNi5KxrJaR4Ve5UCDtcmqk1bKyqG993mR697yT9aeSUQeXAKhsizXgJcXRqiXtr4QELn6koer0jAjBTz5J1l+5NHxuq6UQ4XJIiByzUK07wVMcvWEIrrzDNeAyNWTVP2VReTqTyZuSiRy/TBJwiJXN6rqsiAiV5di8VEoloUHK9FTYtVLawx4kqq/sohc/cnETYlkucpydaOMCxZE5Lqg0EYVWeQqch2la1d8jsj1ilIl1YlJrooWIAlF2SyDgMh1GVGNL+h141w/Tg5UlUYSKM51vE6u9ESR60rSmlDWUqLJXeeFiJjfAtMMrQkKudAjRa4LCWtGUVmzmbysIqW1BWZo0Z7PFLnuKffiWiOWM2eVlp73sNAJwqdKy5u7zpMfuVigunAYAiLXYVCv+SBWTCiIanZcKHc9Vx+rfK2pVXuUWuS6h5yba8mMGADBzlzAhbV8IuqhLxE0q9Q2N4pctxF1e0Vz3eOa8yC4K3xDS4NZ7fq0y50i110k3VFP1ipSgYSfv/ekozT1t7Ktb9RDX3+tl8Nud4hcd5N4Q30xEBWIkbV98dunDSWpvwUkiEgFVrmRz2zfcT0KumMGAiLXGagv+Ex8poVJUMjrh4++MEUCo/nM6IBQf31W205scBn9/OU3N9148cHTh+/e/fTVDy4l/I7HcA30CPd4602IXO305FI5YxJAIBfm9vv3PzfxwcLaZlusod7eGvHqivbT068fQJKMFyHIFzr18rNnJnpVg7XItQatja8FoQRyYW/RqOAXZSRYPrBk2GUM+XmZacbAamYekDdI0OoFGOQF/z7Ie0YSuc5AfdFnWlmvoSGgu9djFYJUrRtrT/kWFTu12LAoGRZq0JnSLSza0dasyJWqOtfOzNJ6PTYSkOyPn3z1kJsBBSsVVskICwjlk9Xart9w04DgjnKesY+XL3RrRBK5jkD5Qs/AKP/oRhEGMECiYX90Q8WAnqzWekUGZpDZaJ3JPY/pioqhInKNIaPjdxGAtWgROZBrDLPPa9LAXXVIHoSFOFtuuedjIM0qiVytkL1wvsw5+jnl93AeVo5SOQJ4AXu0VmO6BPnmXFDltX99pcj1NRbaq0CAPWsrpvizj8NKt2h4FVAvdSmwsh5UtNAJlJm9apvIdSnV9VNYWCestV4tGgsrT00YKNe5VYn1qCvMhYVEruW6oytPCDw2Jv7MraOyz9xXdMBJ4Im/V3IVsQhW5JpQGJ3KI2CxKMpMQg3PxiLhSmUIXMFiDXIPWwbBilzL9EdXJRC4ktWCxoUBDrg9lPIIXJFYWQQrcs3rj64oQOAqBCtiLRD2Xy/BCwh4BTK62haDXHh5tCaRaytyuu8tBOAiWDkGVj7Wt0SaPHBlYg0vCkxWae3FiFyT6qOTtQjgTb9iFIEmCdRJmvlttUBkXreti7uLXOt0SlcXIIA3/SpxsLC02fGNBRAtfQmmtK4Yy9pD3i06InJdWs19Fx4K6dlNgBdAa5fPN/K2pVtp9lUPoR7vbXEPiFxt9XD73EFe1ksVHhtByT7cFqz1Y3cTMF6YJRizrkFIHBYLghsCEzrwwz5+ODfy5Y1n1iSRaw1aurYZAXQlZ5MsSBVRDbJWm8U4xB0APQGJl8oJ14KARxBtzcpoItd2PdOdDQgEkh3REIL1hFFtRlB4Q3UvdYt1uB1ItYa8zuCCjGFdWuoWyliaRK6lSOk6OgKwOKCsFo0BhAprpidOkV7hxTO0Cr1Cvkw5gaDhMggvV+YWA3mlFrXIdXGFv0rxWQ0AhNpj/VwFT3Y9rKY5Ww4q4sXN0qtjPqW+V5ErWwuVXxMCR+Xt2ddAVRP82ZssQutqutjZAkYusHBlIHKgJIlcS1DSNeYI9BDq8V6RK19U6AYfMWbsjyDWgAR6M4wyH/MocWOIXIMEtJ2KwFFxe/ZFrnwxssOv4GMt9VuyasO2vEHYuSRyzSGk80MQ6CHU470iV7642L7LGT5xkDlzWnaJa0DkytdF5diAwJEge/ZFrg3gZ24BkfTI5Hhv6WBQpkhNp9n+19xLQuTaJCbdxEbg2AB79kWuXMmAQHrkcbwXIXej3QFnNJjWK9wlqSRyTaGjc8MQODbCnn2RK1dkTGuvxE/JLf3buTHrk7PCXZIr3pY/f/nN7Ydvn//w0Revfj89/frVubeh05FVEegh1OO9IleuBoBAjvj27JeMsHNL/3ZuzMiH3KeAppMriPTlZ88evn//86ZVzTFjAqv0gIBByEprItDTaI/3ily58mcNZsEl4CWxZm/lBrWmkCsIFRYp01EeGhjIFkQNC1dpHQSC/Hq3IleuzFlENDKuNYcAVtbq1bNwf+pZQ8kVFurItSBBtLBoZzvRUwLQuUcEgrL2bkWuXI1iGUA5/yS31OncoCO9ehbuTz1pCLmCVFlCCpWq3cKahcWs5BOBWnnGrhe5cuUbw7n2OAaSvCQmuaY4xZRcUQmrlXRqhYvrgyXrRcgqx2sEWuR57x6R62tMGXv3MG455kkuzEGtVL1MyBWFh6XYIoQR98CKToHCUErlUYcAS+6Sax3uuauvKpcR9aKTK8ItZrsASoGDP1bJBwKlMstdJ3LlyjOHd+l5T3IBR5WWO3ddql5UckUEQK4w3s5jgE0DXtwG2ZIbSy9Syt5Srt3vYclFA1odmuTZDZBTEPZK6B0wbntrTkal50WuXBVijZl4IlfmKl8ptCmW68rEGhotBrs8zCBJCevK54IcerciV66WsOJcQdJeEmtiBHQ1lbrJ9QrEGhq0CDalKrbnggx6tyJXrpyY01+9uN9YY0Km01+vRKyhUYNgU7FrXNVVbgGBgH/vVuQaEOVsmQudeIh1ZQ5m5WadNVuuFp9O6G1YrPvRhfHyluU0Ef+5sGQncuXKGniyZIPB49mJ6RLANNpUaiJXpkOYJTh2Ph4UISW4q51jyU/kytcMlmyQz0z5oEc6si7V5IoCouvMLKTXvDyNcPKbjK8cWTows/H6QpRXGtagFmQMf+esxLRaUZdcqiZXVmgGqzFZ56MIgpwKcc6z5Chy5cjjmAtzFSnIeYbRwvQdow744GEuVZErG2RWg7LMx1MISU6YK59nyVDkytcCdncass59IoVZCxhI7N52yeBcMbligIddwNIGBYJjdk1KnxuuyzmumYqwa14B696tyNVGg9g9VnDJiF4heIsVenXUzZIB72JyHRUdACGi25ACHhXDmwOmOVY4P1baYh+KUAKmjVrvkStLbiJXvr5A95+/94TeztCuLOUFDmG/FKCnJS4BSKGIXC26BefGBGczntOSQLTMrzqey4b/M/xELVises89zFuOWTbWVbHtKTcIysLyO8q2pItdWwe4Hax62qU6VkSullYr3gKtpHoGHARoZcnKej2jzf1/bGw9+6WKzy39NXMbuRATLGMGDyAPy8lNsIRLU5Zc0SWwegNY+DKtugJo8BblLRXU1a/rIdTjvSLXfk1Bmx/5Oaaj/ECMLSSLe7CE6DEvi/0aKztLrhYRArAuLRvBTTl+9Skd6Jkxev1NxncOrIZgqVe+EeSUDvhZGVM1MkZbe/HB09sXne+RLY7ha88gVAu/6r2y1litkEaWXNkFB7GmBqs4KvKYi0WEwaiyM3FYIa97ytxyTOTaLm2QWQvmu9xTq1tJcsXbgQ1cjVndriaPd8KCZQ90wf+sxEeApWe1DYBfk/VyRDtnG1EseXrJJ7dIyz2pJ8mV7RKYQUywNJmDXHIN3FOj/mOsRiRyrZMFjB0PbgCW/C3yAX/AUKtNSXJldqthQc5KiCJggn7PBzSrbld5Lks+ItcyjQBZWI6qs+TpIZ9WnUqSK/ONNtIdcFYvKBLTep1Zl3PdrvKf1YhaG8JVcCypB3pz1rGrLHnOzqcnvj1KrhAAq2IzrdagbEzrtcX/Esqh7X0EWLomcr2Pbzg6MnaVJdNZ+ZTOxArYnrdRcoV1xqqUh/hQWK+s+sBdosRFgCUbket9uUD/Z8WusmQ7Mh8M8AGznhQlV6al5yV8ielD7gFd976NAKvhiFzfxhaYMF18LFl5zYdBrJBClFxhEjMq78ElENSNGf3Q+1YLZdL2EQGGriEPkeubGqXY1Q+reIxFrJBClFxZVp4n/yQanhrxm43Pyz/JhSsJxa7WkSr0D5zHNJrMybVntI2rbg+3OctqxGxUOflJLhwckcvM2FX0eB9XpLJfCpSlM8jHIgY/Sq6sUA1P5ArFYwlE3U8eGUguHCxhdc2KXUWo4zFEEWVh9X5ZbfZePii31VcRouR6ryAtx6wK3qqOLXW4d4/ItVUC9++7h3HLsV3lMjN2FX7K2KA1xjmYMeYtOhG7B+RvOSEoSq4sQDyEYR2bcwzo2uO7NuIjlsz9Wvxj1+8ol5mxqyXd6ZtF/Zs/0nqNMdmXHscg+wg9iZIry6SXW4BJQdfNq7Rh5K4b0Wi8SOHW9X6Xv7RmDmOcb+lOw0pkRSGVlPF8DUj16LqwluNW5IqGdwa89f9OjdhaCZF/qxzO9+0iF9RzVuxq76g6XAiIImL1js86cP4Pt8VIUg3txZxcUTEvCQCfgW/9b+mr8YLXyHK0yuF83w7kOjN2ldkTheWNNmlhzcJKRVlnttMoucKXclbc1v8A0UPC27K1Duf7PNTnSmU449v6/8rkCqKAsdKKTc99IKvYoBVDD8ERkB0IEZZxrVWLe8BZIOuZhHrEIkquzNlMM0zyYyXDPqsb5ckaD3VbfdvT8I/3XpVc0YZY+nvEq2QfluUsAwmEDpmGH6KPwj62s8pV0t6i5IqClwBfco2HWVoQSklZS66BsilxESjBveQa6O2VEsjDS+zqlXAdUZcouUKoJcpces1spWeuCMT0O40Q8grPKNWj3HWz9YyJNaw21mSeHG7n8+idWboBmDh5zStKrigw078DcpuVmFYrlPBKDXiWTM7PPTfu1v9XkY332NWz/PT/bQSS5Moc1JpFSrDA2W//t2HUkV4EWsn0fN/q5Ap9Zfayzvik/rfErvbK/cr3J8mVbfHBIT96JI/tr5K/1aY5pBp9zbmVyRVlnzVo1Ru7aqMVa+eaJFdUDSEYNcqduxauBrydRyRmxEOol5fIhxH4jXxGwLd3uyq5XiV2daTOeH9WllzZrgE0HnR7rAkWJNjbUM/3o9ukZIPAGevW/6uR65VjV200ZZ1cs+SKEcNWRU/dZzkaaWUFeAgpW0e16kqa0pWacyuR666xq3Wase7VWXJF1eCPqVHw0mvhX4Jfl5VgBVgOBoz2F7NwWSGfUp3JXbcCuaLXxh4LyOESzqP3JdfWmBZRRK5Q2CAciy0IsadRQFmtrNVQX1mttgoZcO7d9uiRbQ0fc1fs6giUfTyjiFxRVCvr9diY4CpAfF+JhQhC/enp1zcLYMQIq/dG60Od2ktx1IOefc9yUuxqu36seGcxuUJpe5S+9l7EpsKihUX6w0dfvPo9f++Jadf/Xjlltdqr9j3cW455JFcYApbuqhROil21193YE4rJFRmAZFKCvOI5KCcah5ItAizd8UauKM+IntU9/BS7aquzudyryBUkA7K5J8irHvP2mZqcQFc9z9IfT+RqPQ6QwkzrX8xvCVXkiuKyZ22lFGT2Obz5lcYgwJK1B3KdHbvqAYMxWuP7KdXkiupYTCxgNS5WPnIHjFVcltxmE4tiV8fqjeenNZErKsRcMYvVsJj5zG6knpWGXTa4m1iyQ/zojKXyUIeZsatyX7G1sj+/ZnKFMl2VYBVk3a9YuRygPy8/e/aA6A8WsR7zQbQJfJ4I17NOil21RnjN/JvJFdWFb+lqA1wiVltFhs6MtvBAtCByizQ7dhUvKSWfCHSRK6r0+Nbmrpx1tEBG7qtrZaekcLNYWamlOoKQKMRMMwgJeSh21U5frpBzN7kCBCja6i4CWaw26gxLdTapnsm3d00LvChmxq4CUyX/CFDIFdUEwVp8f/zcMNj/4daYMQDiXzX6S4gu8ywSKtETWJ61RKXY1X692CUHGrkGwFYK04K1LWINkuNtQVizuswlpHq8BuRf0mtBnWb1zrBgvaJXePo5Kic6uaLgUIRZinhsOLF9WKvyr9qoGF5Wnq3VmE5gkC2WQL6z6oTeIMNHHKubjtshYEKuobiYghdT5lnHMeuqtisY6qNtGgHM3ptFQgx9gm/4SGTYHx3ZEOohAyCtayucNSVXAAAi87DgC0hVXSs7lYR1F4hh5S16XCDVxyiYj6fUSe4qOz0dmbM5uYbKgGRhyY6Oi0W3SqQapGCzvQqxhpcC+1PsId+SLcYsjtazjcSU6wgEhpFrqAwUB/5Oy8gCvPnxDHX/A+p226sRawkBWlwDo4P5ySM7iSvnUgSGk+uxYCBaKBTcBiyLVkutHRG23V918MqCHHvy1DiArZ7Oyn0quR4rDQXrUdBwr8j1iKrdPl6MM7vPQd6rb6Wvdjo6O2eR62wJLPp8b7OuViNZxa4uqvgVxRa5VoClSx8RgD97NTLzVF7Fru7RkkSue8iZVku4A1aOZZ1JsopdpanhEhmJXJcQk59Cjo5ZRuQH/PGw9uCfRKgS/uPHGgQdQbiKXfWjw6NKInIdhfQFnoN44RFEBCJFiFdJKB2iTUC48GGOKFvLMxS7egHlb6iCyLUBtF1vsYxNBmnBKi4h1Bj+IGRPJKvY1Zik9jguct1Dzt21BOm1WG0l96DL3EOq58p5GHCD24JZp3Md9d8/AiJX/zJyUUIrXyvytUiPExx+Z/ZCSL00FLtqIdH18hS5riez4SW2ihCAhWmZYDnCKk4RIfOcYlctpble3iLX9WQ2vMQW6weMsu4eXwz2FqxiV4erpfsHilzdi2h+AdkDWVaugBhScBEwLdRjXopdjaGu4yJX6UAWgSOZ9O6j6wxrcnSyGORS7OpoKa71PJHrWvIaXlp2bOvMZfWYYVog1hkvieEKoAc2IyBybYZujxvhG+21VsP9CE+amZgvCpCrkhBIISByTaGjc7dppoEce7cevggBgu+tR7hf6iEEUgiIXFPo6BxtzVYM/HhITN8rBsqUhEAMAZFrDBkdvyEQrLTe7egIgZj4mDPNEKKmJARiCIhcY8jo+O0LqL2kGu73RESsga1RsbpSxTURELmuKbchpWYOAHnqQrPidkWuQ9Rw2YeIXJcVnX3BmeRqX9ryJ7AiILy4OsprritHIiByHYn2Ys9CTGro1vduPVWdRa6zQ8s8YaqyvI2AyPVtTHTkrwiwSAifhfGUWPUSuXqSqr+yiFz9ycRNieQW+DBpuYtc3aiqy4KIXF2KxUehRK5pcsXAmJIQiCEgco0ho+MPTHL1FC3AmqUF94KSEIghIHKNIaPjF45z/TjZ3S8dvBO5qpGkEBC5ptDROQoJgay8dKGZa7taf0lB6rc2AiLXteVnXnrWbCYvEQPMtQXgNlESAjEERK4xZHT8hgBrNhOsVw9TYL99h+MSQH2UhEAKAZFrCh2de2BaeiC2mYn5LTCt5zpTkms8W+S6hpymlZLpo5xtvTKtVi8+5GmKoQdnERC5ZiHSBViLFcTI+MH3OuPzKKxZWQEDDy4OaaZvBESuvuXjonRYoCSQCmM7ukvNdAeE+s94QbhQBhWiGAGRazFU+17IXMAlkNP3738+BFC4NWAth+cytnIJDBHd8g8RuS4vwjEVYLoGAsFZE6wFsaLscgmM0bnVnyJyXV2Cg8rP9lkGgrX6RLWFKwBlxktGLoFBSrf4Y0SuiwtwVPGZ354KxBq2GMWH64GRUM7n7z2hugFCObHVlFeGlPbIQ+S6h5wptWQPbB1JC/vfvfvpbbGYlsLCmvzhoy/o/tVjGWW1tkhm33tErvvKvrrmltbrkcRgyb744OnDz1+mp5eiPD9+8pWppXosl6zWapXZ+gaR69bir6+8le/1SGLnfYz2w6oNP/hpz9dY/5fVWq8ru98hct1dAyrrj+43azEXa0Jk5s/yCVfCrcsXRkDkurDwZhXdIu6VSYTsvBTXOkvT1n6uyHVt+U0r/YvfPh3eNWeTZkl+cAfAt6s0FgFgDp87fOoYqLz3wzlc41U+ItexOnOZp8E9MMP3WUKIzGs0YWCMyoIkQaDwq7fKD/qIgdCfnn7tIhZZ5DpGdy75lMcZULxFXVobldV9+tKArdqCBDFLjz09OegD4p1ffvZsGtGKXG315/K5X5VgEdOrxEdgRDxyINewBXmDxEe7D0SufP3ZLserDXDh67BKXARmkGog1+N2JMmKXLk6tG1uIFgM/hwVecV9WKwgAiUeAhh4sur6t+oY/LvWcha58nRo+5xWdxEgAkKJhwD0wfOgJ2YCWn5kUuTK0yXl9PBwswY8N6iYpaOoAK76erRWY7KHFWuRRK4WqG6eJ7pbq8TBYraZpfWymypA9vBrxojM63EYBGw3gch1N+0fWF+QluepsngBsBvUQHjdPQpYrthrCYSPssOVwUoiVxaSyucuAmhwWOzF02AXuxHdrfhmB1cn1kCwGHhjEazIdbNGMKu6HkgWIVbyrfI14CrEyiZYkStf15RjAoFAsiPdBSBV+VUTQuk8tbIrIBDqeQsLtnfSgci1U7F0ezsC6H7B72lBtFjJCtNXextIe+32uHPFwaszkcb+46UBY6A1iVxbkdN9VARiCl57HP7dngZBrdTFM5uxcHqtPvRej/UJWpPItRU53UdFoLcRhPvV/aeKJZoZcA6YX33buoCPyDWqPjoxEgFWAxW52ksNPQPMbmLJbIV8WiIIRK72uqgnFCDAamAi1wKwOy/ZwR1w1kesM1ubRK61iOl6EwTOytz6X+RqIp5XmcKCa5VNz32I+Dj+ZsRN14bxiVxfqY12ZiLQ0/CO94pcbaXY86WAo5xS+yBOrE4GMssNTmI1NquIk3MZEZ6VK88RfZHrEQ3tT0PgrMit/0WudiIEtq1yKbkPpFprHR5ri3stwvqOZa8Z3BK5HqWj/WkIHBW4Z1/kaidCWJM9skndywyhA8lauQ0wkFeaRK6lSOk6UwRSDa/mnMjVRkyYjFEjh9JrQYItI/G5WiJPq5ljpda1yDUnJZ0fgkBpY8xdJ3K1EZfFEpIgP8sZdPCPYqZeTmdqz6PcJWk6ueILkPgcLuszEOheKK2HQK2Cx64XudrIntU+g9zgG60ZHOqplYUFW/JSmEKu+NwtppWxBRYEhxHNmZ/U7VGEXe8Nsuvdilz5GsQOv7JyBcRqDhJnD3SVDGwNI1dUEJ9TsCLUWKMEiavBxdTOz/GY/GqPS9Z8mbInDSB8anRivyBKXAPm5ArzGSvnjCbVc6OENauGN1qly593llfrf8m4HPPSK5ndakwEmJXYfuOcW8OUXD1+pAwkW+IvmaUAuz63lUzP94lcuRoEAjlj3PN/pnxQF2aIVq4uJuRqGQbRI9hwL6xoEL+SHwSCbHq3OYX3U+M1SgI8e2US7kec7OzEdHHkBs/p5Aq/agDT+1ZW7GxVf/18lq6IXF9jytjDwA1LNjN8rWcM0Gtl1Sfn4qCS64qrksOKhaWtNBcBlsKLXLlyZFp63JK158aKHMgNalHIFb4MptOb1dBK8wHBenirtqvL+neWyip3nciVqwuwznKYl5xHML+XxBzYStWpm1y9+1dLBB+uKZ3WlgJU5+9wVV0AABDSSURBVNoQCDLo3Ypc2/CP3cUi15x/MvZ8i+PQkV49C/enytdFrrBYr7YiuQg2pS5254Ky9m5FrlwZ9coj3F8SdM8teTw3JrmmIo+ayXV1V0AQ+r2tCDaumFZn7smh5ZjIlSuhFhncu8eTXJiDWql6NZPryj7We8I/HtMgF7eBluR2xL9nP6XsJeXQNW8i0COL473e5HIsW89+ql5N5MocQeypmOW9cHfAOlcagwBLlillH1OTaz3linJxa7lCeVmAe8+n55vl12pi9rVh6YLIlSsr1owmT642JofRfK6w5NBlZjWEFfJRiBa3scZyY+mCyDWGcNtxRQt8mOS7FKpVbgFmfBirMVnng5eJ3AMpFeKcY8lR5MqRR8iFtdi04lwDone27CW7co0Jsyjw1sQPPl78MDcZ/0cPpuGlomSLQE4fSs+LXLlyYo2vwEjxklj8gXxSqdhyxTz8UgVvvQ6FhTBLpqPCmoQfh/VmzZU55VtJAaxzZQjk8C89L3Itw7v0KrSxUuxz13lwsTEHs2DopVIRuUJhc8D1nIeV2gM8ALP8MiXq5mFFn5QgVz/Xoz/He0WuXE1gtn0PbYhliUPnkFcqFZGrlXWIkUjmzA2QLMvkPzbYsC/fa0qV+s4FjHu3Itc+Ody7u1cmx/tn9gDZA/I5gzBLrkwz+ggyrNWS7v89YeeOWVmxuTdVrlw6H0fgqBs9+yLXOMatZ9D97ZHJ8d6Z1ivTakWdcsZWllwtIgRgXeYK1qoI4T7mOpRBOTCxQMkGgYBx71bkypcPuy3NkBGMRGYYaW4wC1LIkit7YZYRxBrUi/2mQsO3srZDmXfd9pJquH9Gw726zNiRQiC5ke4BGHJsd2FJLzZJrlDUoLSM7ehP6kLp2f5ihWXZUAlDv5CHyJUvHwvX4EgjCzMtWfoV8il5OSTJle0SyDmA+WrxcHM/sFYeB7ByDVhI6YGm/CJXrnwsPzKK8E5r96DF11FKXAKQQpJcmaZ0LiaMqxJv5saM1QPBlry13iyB/uUQCBZB71bkmkO67DxcAaNi2y1cbRaugKCbpeskRMkVhQuZMbazlZ75ophhgZc1iXWvYugY8pitZ+tK4HXJR39kFD7Yl589e12Azj3oAHPw6qibcG2WWttRckUBj5n27M+0WoOcQIg9dTjeW+LMDs/VtgyBI749+yLXMrzvXQXs2APYNbLEs3tIFuW3trZr2n6UXJnhF6Vm9D2BM4+xlk/z8LJg4uIhr5pGmLpW5FovTVhiLz54SjM+UvIpOYdeJsrz85ffZCsDlwIsbWbPNFbGGqsVBY+SKzOMqdSMziLZeQErcgCCVOIiEFPo2uMi1zq5oEdn1YWulV3selij+GFwCqQb/o8uNwzOmhQlV9asDE9ExBzYqgFZ1+YRiDWs2uMi1zzWuAKDshYhSrXyWuX6Fh4zJ1dPcaFoeCxhlqmwripFgCUXkWseccvwKpYcveXTolfm5FrjAM6rRd8VzAgIL66OPkT83M1qTC2NwA8KtiUZFV7FkqWXfFo5LEquLH9GrZ/CVr0UrG6Nb2v+rIYkcr0vgdHhVSx5zs6nZ/A6Sq6sSnlT9qvW636TWueo5GIjK7S/meFVLLnOyKc2OuAswSi5sqaMtprU54Ky/rOE5O2lwcJnVj6SCxd5b+FVLPmOygfE2jtzLEqurGgBT+TKXIBCU2C5ZMBqNHrpPdy+6sFy67HkslI+DGJF6zAn15mL456bPxoeS8jwYYlgzwi3/2fJZWdyVXhV+jPYJToGYmXpUJRcWQH3nlaRYs46C4JCYLNItp1Uw50Bz94tq2GEcq2y9RJeNWKmVK+OxO5nWaxBZ6Lkiu58rBC1x72QD8vVca/+mDWya8MOytSzvYdpy7HdZOAlvApjNAF79lKlLXpQew9eCr0+1rP+R8mVOZvJQzgWM8Y1JTgIqWfxibOAdvmfwrTmXGjgO+DmJbzq3rgK+AOWYI3sZl0L16VF3HqUXKGkrMp6cA0wXxYluKDO6KpZCO2KxFGCack1O5Ar6ughvAo9wZS1hx6rZW+xRB9S14D8wQtWKUqueGCqYLXnLCuRAwcEN2v0FM/V4FdOQjxduzK5Qo89rF4FUqrpjXq0Yq2s1aOmJ8mV+daZab0y/ce1L5Xj9Rr8Oqrem/tHnHr2r0quXlavwkB3yxgKXgxoh7NdBeC0UTqSJFc2Kd3zzbzZxPj/0G2ZZbXGSEKDX2/LOYZV7fFRDeftGtgcAZF5WL0KpMj4AkcgWdYkpVL9gKU6WjeS5ArBlha+9DqGgErVGIL0HBqiwa/XkizVn9x1oxvQ6xrw97yEV2H0H22JneAuYIV83tMLtC+4L1osbUZdk+SKB7DJCVZkygnOqFTIw8Mb/57Qz8c0+CWfa9BZbNE+0Ls568no/8fwqmP52PsgbhAtSLyHb1BekPVMQj1ikyVXFJQtVGuChbAsPqnLxuGc386DX2csWv+vbrl6Dq86EoflPtov5IheLlyJ+IF44S/FD138cBykjGstLOveOmbJFYVuVfTcfQCGndAF6Hn75co86vwug1/QL8QFs3CF7DGiPqp3xNJfEMQK4VWs+u6QT5ZcAQLeFCzlP+eDrjvLJ4JG6m3w6lzf2v9XHPwKhGrttgFZ4SXlmWiBxYrhVTuQY28di8jVYmDrTDJQMChaSwKpenjrn+vE/A+LbPWZX5Avur0zXoAeX1Krh1e1tNWd7ikiVwBiab0eSQiNAKOkKWsWjfSnp1/frJIZDfVY3tH7Kw5+zSTVs3zwkhoZsXKPTKDb1lb7ud73/rPCq+7VUccSSw6ewUEDmREADPIE4eJ3dev0XgOIHQMuK8z88uqqAblBp0enq4dXjcbT8/OKLVdUwiJyIEYeOl6+NqXHwS9YZ3ghepYjXlAguxFpt/CqEZh6f0YVuaIyVxiJr2nwK9UXZOYhFAlRICu5a4CbpRWr8CrvNGhTvmpyhUUywz1QQ4isa8N0XRAWc50FVvli+cwc/PJCJDFsYseBWcrP39L8FF7Vgtp17qkmV1QdlklMSa9yHGR6Tmh8owb2GDiOHvxaceLGEWdY24ywLVjBCq86t579/jeRK2BaiWSODahkH9PoUt1EkCys2lUseOvBL2Dl3b9aIndcA6x6ogkUXrUficZq3EyuVyVYEGap9QJSwSDf6BV+Soni3nUWg1+rW6xnnFosWLxwFV4Vo5k9j3eRKyBbacDn3IjO/2uI9awucJWshAVr8OtqxBp0AgRb6oNVeNW5Neg/EOgmV1hvlsuGBWW33vYQ61GVdhr8urrvHS/LlHtI4VVHzdf+GYFucg0ZruyDZRFrwALbqw9+gVhg3Vm/9GbnD8v8XvISFREiWu6VUcfmIkAjV1QDgp7dGGqfn7NOesVz1cGvlVwgtTpxvv44wKXwqt4Wsc/9VHIFbFA+WIJnBfX4H2tEjkpXGvxa8SXao3/B/6rwqlGt5RrPoZMrYPHuh8Xo/tEaGS3KlQe/YInv4A7oIWOre1s/Djhav/W8RwRMyDWA+9iF+r0rKxZWV2qQIpR9xHbFwa+R8axwPUBe+AGr8MPLCcfg51+ll9RDuKjjTGNgRFu44jNMyTUA5iEWFA2xNLQmlHvUdrXBrx6iyN2LmXEgz5oXIAbX4OK5ItGiXjVYjNJZPSePwBByDcVAoxkZcI/GBuX0SqoBl7BFOWGRXZEkcqTKcNVc6SUFPGCpK62LwFByDTAFS8OKaOGbApGvmmCpeLD2c4TIOo8XCjNBv1aOZmDjwcRWeZUjMIVcj8VDQwCRgBBbyRZdSSgk3vRX60LhJbEyUaQI2NKXCD1YbXIL9BjtQekaCEwn13swQsFAlCBdkOb5B+f+FYn0HhbhGOqLxpciq5XOgVhHEMkKk1uABXRd6VoIuCTXa0HMrc1V/Ip4WYxKnl9KCq8apQXjnyNyHY855YkrD36N9ofDRdDqcrLqDVi6RCgKpky6ERC5dkM4N4PVBr9gqc1IcEFYEWVtvgqvmqEB458pch2PudkTVxj8gsU9K832vyq8apbk5zxX5DoHd9Oneh38ArnNTCD2WiuTdb3Cq2ZKfs6zRa5zcB/yVG+DXzOt1gD4aOtV4VUB+f22ItcNZA5Sg+WEQRSWJVabD2J1PSS4TmrL3nK9wqs8SHtuGUSuc/Ef+vSZg18YxPGQgEELWdbco/AqD5KeXwaR63wZTCnB6MGvkXGtOUCt4l4VXpVDfq/zIte95P1WbUcNfsFi9JIs/K4Kr/IiXT/lELn6kcXUklgPfk2t3Onh8D/XdPNT1yq86gSu/r5CQOT6CgrtAAGrwS9P6LLI1csgnSdsVZbXCIhcX2OhvQMC6Majq5uy2krP4bMwnhIWSSkte+o6+G6VhEAMAZFrDBkdv608liKXmnOe4GRZriJXT1L1VxaRqz+ZuCkRBrtqCDR1racBLZZFLnJ1o6ouCyJydSkWH4VikusVQ7FmT+f1oSUqRQwBkWsMGR2/fdUhZY3WnPO0GHRNuVPXwr2gJARiCIhcY8jo+A0B1pRZLyPr+IpFijBrzo1el1YquRYCIte15DW8tMzZTB78rix/K0jYk6tjuGLogVkERK5ZiPa+gElGs7vRIHeEhdVYp6lr99YM1T6HgMg1h9Dm55mrSIHYZlqvrBAsEK4XN8fm6um6+iJX1+KZXzjM2EpZb7XnYAnPSFepxwzs9Mw2BESubbhtdRf7434zfJXfvcv9LDkGxpSEQAoBkWsKHZ27IcDsTsPShXsAHwwclb5//3Oq9Y0ICiUhkENA5JpDSOdvi7nUdv9z18NnOcL/yvQZhzpp8oAaRQkCItcSlHTNbQAnkAtrC4K1tGBffMBZeOZc3xluDangegiIXNeT2ZQSW1iAIC24CNj+S1jEz997QnUFBIKF/1lJCJQgIHItQUnX3BBgD2wFwsIWflGM6Peml589e/j2nY9NiBXl1KysXgntc7/IdR9Zd9eUtQ7qkVTP+yDZWlcBLFVrUkU5ZbV2q9BWGYhctxJ3X2VBYpbW65FoYX2CaH96+vXDz19+84pwUQb8x+/HT756YIdYHctw3pfV2qc/u90tct1N4p31ZS58ciYvz/+1dmun4mx4u8h1Q6H3Vpm5mItnQj2WTRECvVqz3/0i1/1k3l1jDDyxliI8EpjX/VlTdrsFpQymIiBynQr/ug/fxT2gBVrW1dHZJRe5zpbAws/HTCWv1iajXLDOGeFhC4tYRe9AQOTaAZ5ufTCZucUgRkYe7MkN0pe9EBC57iVvem0RGoWuM4PMPOWhsCu6qmyXoch1O5HzK3w1ghWx8nVkxxxFrjtK3aDOVyFYEauBcmyapch1U8FbVHtlgsXglYjVQiv2zVPkuq/szWrO/KjhCD8spvTWrmdgBp4yvgwCItfLiNJXRTDSvsJEg+e//sOQRbt9SUelGYGAyHUEyps+AzGiIK8R1mftM0D8CrXaVDEHVVvkOgjonR+DefmjVtMqIVm4LeAfVhIClgiIXC3RVd5vIIABo5kkixllmnH1hkj0xxABkashuMr6PgLojo9yF4DM8fVaWar3ZaGjdgiIXO2wVc4ZBEB4+LoBewlDECqsVEUAZASg06YIiFxN4VXmNQjANwsrE1ZtKeGCSHEt/KhwO6jbX4O4rrVEQORqia7ypiAACxTEe/ypm0+BVpkYIiByNQRXWQsBIbAvAiLXfWWvmgsBIWCIgMjVEFxlLQSEwL4IiFz3lb1qLgSEgCECIldDcJW1EBAC+yLwF4l82N+vltQEAAAAAElFTkSuQmCC;" vertex="1" parent="1">
                    <mxGeometry x="381" y="145.75" width="193.81" height="195.5" as="geometry"/>
                </mxCell>
                <mxCell id="9" style="edgeStyle=orthogonalEdgeStyle;rounded=0;orthogonalLoop=1;jettySize=auto;html=1;curved=1;strokeWidth=6;dashed=1;" edge="1" parent="1" source="7" target="4">
                    <mxGeometry relative="1" as="geometry"/>
                </mxCell>
                <mxCell id="10" style="edgeStyle=orthogonalEdgeStyle;curved=1;rounded=0;orthogonalLoop=1;jettySize=auto;html=1;strokeWidth=6;dashed=1;" edge="1" parent="1" source="7" target="6">
                    <mxGeometry relative="1" as="geometry"/>
                </mxCell>
                <mxCell id="13" style="edgeStyle=orthogonalEdgeStyle;curved=1;rounded=0;orthogonalLoop=1;jettySize=auto;html=1;dashed=1;strokeWidth=6;" edge="1" parent="1" source="7" target="12">
                    <mxGeometry relative="1" as="geometry"/>
                </mxCell>
                <mxCell id="7" value="+" style="ellipse;whiteSpace=wrap;html=1;aspect=fixed;fillColor=#d5e8d4;strokeColor=#82b366;gradientColor=#97d077;" vertex="1" parent="1">
                    <mxGeometry x="454.4" y="426" width="47" height="47" as="geometry"/>
                </mxCell>
                <mxCell id="8" value="virtual node" style="text;html=1;strokeColor=none;fillColor=none;align=center;verticalAlign=middle;whiteSpace=wrap;rounded=0;" vertex="1" parent="1">
                    <mxGeometry x="395.4" y="494" width="165" height="20" as="geometry"/>
                </mxCell>
                <mxCell id="12" value="" style="shape=image;verticalLabelPosition=bottom;labelBackgroundColor=#ffffff;verticalAlign=top;aspect=fixed;imageAspect=0;image=data:image/png,iVBORw0KGgoAAAANSUhEUgAAAVcAAAFaCAYAAACqrx7GAAAgAElEQVR4Ae1dzc4lt3H1A8VQ3sB6A+sNrDewAG0dRAtrGUQrLT3aWbvMVqsIWmYWWUSbwBIMCBMIgyjKQBASBAjwGed+5kxPz+X/KbLYPAQuum//sMlTxdPFYpH9iwclISAEhIAQoCPwC3qOylAICAEhIAQeRK5SApcI/PzlNw/4/fDRF9Hfy8+e3a75vz//l8s6qFB7IyBy3Vv+LmoPcgRRfv/+5w9//tt/ePj3v/mw+venX/7dw/P3ntyIGKSsJARmIyBynS2BTZ/////9PzdCbSXTHAGDbEHW//uv/7Epwqr2bARErrMlsNnzf/7nb24WZo4cmee/fefjm0ULQlcSAqMQELmOQnrz56Dr/927n1Z395kkC2sW7gclITACAZHrCJQ3fgZIFb5QJkn25gVLViS7sVIOqrrIdRDQOz7mx0++eoC12EuGVvfDklakwY6aOabOItcxOG/1FPg2vVmrMYIG+f/0T/+2lXxU2TEIiFzH4LzNUzA6j253jMy8Hn/xwdNtZKSKjkFA5DoG5y2egkgAz26AHLEjdEtJCLAQELmykNw8n5dP/mU5a/Ue2SLuViFbmyszqfoiVxKQO2dzFWINZCuC3VmbeXUXufKw3DIn+FgDKV1pKxfBlupMrbTIlQrnXpmBWFf2seZeBiLYvfSZXVuRKxvRTfKDX9JqXYAc6Y08D5eHkhBoQUDk2oKa7rktijKS5GY9C5a5Fn+RwrcgIHJtQW3zexB0P4vsZjwXFrqSEKhFQORai9jm18MdcGU/a4y8//Pvv9hc8qp+LQIi11rENr/+xW+fDrdaYTl+96tP3/j96Ze/G1oOvFAU/7q58ldWX+RaCdjOl2ORk5hlxzwOMoWlmPN1guww4PT9b/74MIJs8RwlIVCKgMi1FClddyMxJome84J1iim0LQlEC0K2JlmtotUinT3vEbnuKffqWltarbBUW0n1XJFAsmfiZv2X9XpGXP9jCIhcY8jo+BsIgFRYBHXM5/mv/2Diy4S7wMqKle/1DdXQnwgCItcIMDr8JgIWEQIYHLNM8Nl++87v6S+FH//xK8tiK++LICByvYggLathEdc6qnv9OEWXG1mguFdLbbtO3iLX68jSrCZslwAGrkYm+HOPrgjGvga2RkpwzWeJXNeU29BSM8go5IFu+gyfJbryoQyMrVwDQ1VwyYeJXJcU27hCs62+mQuhMP2vGIhTEgIpBESuKXR07hY7yrD0kAfIbWYCsbPqggE+JSGQQkDkmkJH5x5gobEIaabVGkTJtF5zM8jCM7XdEwGR655yL64160uuiDn1kJi+V32S24NE/ZZB5OpXNi5KxrJaR4Ve5UCDtcmqk1bKyqG993mR697yT9aeSUQeXAKhsizXgJcXRqiXtr4QELn6koer0jAjBTz5J1l+5NHxuq6UQ4XJIiByzUK07wVMcvWEIrrzDNeAyNWTVP2VReTqTyZuSiRy/TBJwiJXN6rqsiAiV5di8VEoloUHK9FTYtVLawx4kqq/sohc/cnETYlkucpydaOMCxZE5Lqg0EYVWeQqch2la1d8jsj1ilIl1YlJrooWIAlF2SyDgMh1GVGNL+h141w/Tg5UlUYSKM51vE6u9ESR60rSmlDWUqLJXeeFiJjfAtMMrQkKudAjRa4LCWtGUVmzmbysIqW1BWZo0Z7PFLnuKffiWiOWM2eVlp73sNAJwqdKy5u7zpMfuVigunAYAiLXYVCv+SBWTCiIanZcKHc9Vx+rfK2pVXuUWuS6h5yba8mMGADBzlzAhbV8IuqhLxE0q9Q2N4pctxF1e0Vz3eOa8yC4K3xDS4NZ7fq0y50i110k3VFP1ipSgYSfv/ekozT1t7Ktb9RDX3+tl8Nud4hcd5N4Q30xEBWIkbV98dunDSWpvwUkiEgFVrmRz2zfcT0KumMGAiLXGagv+Ex8poVJUMjrh4++MEUCo/nM6IBQf31W205scBn9/OU3N9148cHTh+/e/fTVDy4l/I7HcA30CPd4602IXO305FI5YxJAIBfm9vv3PzfxwcLaZlusod7eGvHqivbT068fQJKMFyHIFzr18rNnJnpVg7XItQatja8FoQRyYW/RqOAXZSRYPrBk2GUM+XmZacbAamYekDdI0OoFGOQF/z7Ie0YSuc5AfdFnWlmvoSGgu9djFYJUrRtrT/kWFTu12LAoGRZq0JnSLSza0dasyJWqOtfOzNJ6PTYSkOyPn3z1kJsBBSsVVskICwjlk9Xart9w04DgjnKesY+XL3RrRBK5jkD5Qs/AKP/oRhEGMECiYX90Q8WAnqzWekUGZpDZaJ3JPY/pioqhInKNIaPjdxGAtWgROZBrDLPPa9LAXXVIHoSFOFtuuedjIM0qiVytkL1wvsw5+jnl93AeVo5SOQJ4AXu0VmO6BPnmXFDltX99pcj1NRbaq0CAPWsrpvizj8NKt2h4FVAvdSmwsh5UtNAJlJm9apvIdSnV9VNYWCestV4tGgsrT00YKNe5VYn1qCvMhYVEruW6oytPCDw2Jv7MraOyz9xXdMBJ4Im/V3IVsQhW5JpQGJ3KI2CxKMpMQg3PxiLhSmUIXMFiDXIPWwbBilzL9EdXJRC4ktWCxoUBDrg9lPIIXJFYWQQrcs3rj64oQOAqBCtiLRD2Xy/BCwh4BTK62haDXHh5tCaRaytyuu8tBOAiWDkGVj7Wt0SaPHBlYg0vCkxWae3FiFyT6qOTtQjgTb9iFIEmCdRJmvlttUBkXreti7uLXOt0SlcXIIA3/SpxsLC02fGNBRAtfQmmtK4Yy9pD3i06InJdWs19Fx4K6dlNgBdAa5fPN/K2pVtp9lUPoR7vbXEPiFxt9XD73EFe1ksVHhtByT7cFqz1Y3cTMF6YJRizrkFIHBYLghsCEzrwwz5+ODfy5Y1n1iSRaw1aurYZAXQlZ5MsSBVRDbJWm8U4xB0APQGJl8oJ14KARxBtzcpoItd2PdOdDQgEkh3REIL1hFFtRlB4Q3UvdYt1uB1ItYa8zuCCjGFdWuoWyliaRK6lSOk6OgKwOKCsFo0BhAprpidOkV7hxTO0Cr1Cvkw5gaDhMggvV+YWA3mlFrXIdXGFv0rxWQ0AhNpj/VwFT3Y9rKY5Ww4q4sXN0qtjPqW+V5ErWwuVXxMCR+Xt2ddAVRP82ZssQutqutjZAkYusHBlIHKgJIlcS1DSNeYI9BDq8V6RK19U6AYfMWbsjyDWgAR6M4wyH/MocWOIXIMEtJ2KwFFxe/ZFrnwxssOv4GMt9VuyasO2vEHYuSRyzSGk80MQ6CHU470iV7642L7LGT5xkDlzWnaJa0DkytdF5diAwJEge/ZFrg3gZ24BkfTI5Hhv6WBQpkhNp9n+19xLQuTaJCbdxEbg2AB79kWuXMmAQHrkcbwXIXej3QFnNJjWK9wlqSRyTaGjc8MQODbCnn2RK1dkTGuvxE/JLf3buTHrk7PCXZIr3pY/f/nN7Ydvn//w0Revfj89/frVubeh05FVEegh1OO9IleuBoBAjvj27JeMsHNL/3ZuzMiH3KeAppMriPTlZ88evn//86ZVzTFjAqv0gIBByEprItDTaI/3ily58mcNZsEl4CWxZm/lBrWmkCsIFRYp01EeGhjIFkQNC1dpHQSC/Hq3IleuzFlENDKuNYcAVtbq1bNwf+pZQ8kVFurItSBBtLBoZzvRUwLQuUcEgrL2bkWuXI1iGUA5/yS31OncoCO9ehbuTz1pCLmCVFlCCpWq3cKahcWs5BOBWnnGrhe5cuUbw7n2OAaSvCQmuaY4xZRcUQmrlXRqhYvrgyXrRcgqx2sEWuR57x6R62tMGXv3MG455kkuzEGtVL1MyBWFh6XYIoQR98CKToHCUErlUYcAS+6Sax3uuauvKpcR9aKTK8ItZrsASoGDP1bJBwKlMstdJ3LlyjOHd+l5T3IBR5WWO3ddql5UckUEQK4w3s5jgE0DXtwG2ZIbSy9Syt5Srt3vYclFA1odmuTZDZBTEPZK6B0wbntrTkal50WuXBVijZl4IlfmKl8ptCmW68rEGhotBrs8zCBJCevK54IcerciV66WsOJcQdJeEmtiBHQ1lbrJ9QrEGhq0CDalKrbnggx6tyJXrpyY01+9uN9YY0Km01+vRKyhUYNgU7FrXNVVbgGBgH/vVuQaEOVsmQudeIh1ZQ5m5WadNVuuFp9O6G1YrPvRhfHyluU0Ef+5sGQncuXKGniyZIPB49mJ6RLANNpUaiJXpkOYJTh2Ph4UISW4q51jyU/kytcMlmyQz0z5oEc6si7V5IoCouvMLKTXvDyNcPKbjK8cWTows/H6QpRXGtagFmQMf+esxLRaUZdcqiZXVmgGqzFZ56MIgpwKcc6z5Chy5cjjmAtzFSnIeYbRwvQdow744GEuVZErG2RWg7LMx1MISU6YK59nyVDkytcCdncass59IoVZCxhI7N52yeBcMbligIddwNIGBYJjdk1KnxuuyzmumYqwa14B696tyNVGg9g9VnDJiF4heIsVenXUzZIB72JyHRUdACGi25ACHhXDmwOmOVY4P1baYh+KUAKmjVrvkStLbiJXvr5A95+/94TeztCuLOUFDmG/FKCnJS4BSKGIXC26BefGBGczntOSQLTMrzqey4b/M/xELVises89zFuOWTbWVbHtKTcIysLyO8q2pItdWwe4Hax62qU6VkSullYr3gKtpHoGHARoZcnKej2jzf1/bGw9+6WKzy39NXMbuRATLGMGDyAPy8lNsIRLU5Zc0SWwegNY+DKtugJo8BblLRXU1a/rIdTjvSLXfk1Bmx/5Oaaj/ECMLSSLe7CE6DEvi/0aKztLrhYRArAuLRvBTTl+9Skd6Jkxev1NxncOrIZgqVe+EeSUDvhZGVM1MkZbe/HB09sXne+RLY7ha88gVAu/6r2y1litkEaWXNkFB7GmBqs4KvKYi0WEwaiyM3FYIa97ytxyTOTaLm2QWQvmu9xTq1tJcsXbgQ1cjVndriaPd8KCZQ90wf+sxEeApWe1DYBfk/VyRDtnG1EseXrJJ7dIyz2pJ8mV7RKYQUywNJmDXHIN3FOj/mOsRiRyrZMFjB0PbgCW/C3yAX/AUKtNSXJldqthQc5KiCJggn7PBzSrbld5Lks+ItcyjQBZWI6qs+TpIZ9WnUqSK/ONNtIdcFYvKBLTep1Zl3PdrvKf1YhaG8JVcCypB3pz1rGrLHnOzqcnvj1KrhAAq2IzrdagbEzrtcX/Esqh7X0EWLomcr2Pbzg6MnaVJdNZ+ZTOxArYnrdRcoV1xqqUh/hQWK+s+sBdosRFgCUbket9uUD/Z8WusmQ7Mh8M8AGznhQlV6al5yV8ielD7gFd976NAKvhiFzfxhaYMF18LFl5zYdBrJBClFxhEjMq78ElENSNGf3Q+1YLZdL2EQGGriEPkeubGqXY1Q+reIxFrJBClFxZVp4n/yQanhrxm43Pyz/JhSsJxa7WkSr0D5zHNJrMybVntI2rbg+3OctqxGxUOflJLhwckcvM2FX0eB9XpLJfCpSlM8jHIgY/Sq6sUA1P5ArFYwlE3U8eGUguHCxhdc2KXUWo4zFEEWVh9X5ZbfZePii31VcRouR6ryAtx6wK3qqOLXW4d4/ItVUC9++7h3HLsV3lMjN2FX7K2KA1xjmYMeYtOhG7B+RvOSEoSq4sQDyEYR2bcwzo2uO7NuIjlsz9Wvxj1+8ol5mxqyXd6ZtF/Zs/0nqNMdmXHscg+wg9iZIry6SXW4BJQdfNq7Rh5K4b0Wi8SOHW9X6Xv7RmDmOcb+lOw0pkRSGVlPF8DUj16LqwluNW5IqGdwa89f9OjdhaCZF/qxzO9+0iF9RzVuxq76g6XAiIImL1js86cP4Pt8VIUg3txZxcUTEvCQCfgW/9b+mr8YLXyHK0yuF83w7kOjN2ldkTheWNNmlhzcJKRVlnttMoucKXclbc1v8A0UPC27K1Duf7PNTnSmU449v6/8rkCqKAsdKKTc99IKvYoBVDD8ERkB0IEZZxrVWLe8BZIOuZhHrEIkquzNlMM0zyYyXDPqsb5ckaD3VbfdvT8I/3XpVc0YZY+nvEq2QfluUsAwmEDpmGH6KPwj62s8pV0t6i5IqClwBfco2HWVoQSklZS66BsilxESjBveQa6O2VEsjDS+zqlXAdUZcouUKoJcpces1spWeuCMT0O40Q8grPKNWj3HWz9YyJNaw21mSeHG7n8+idWboBmDh5zStKrigw078DcpuVmFYrlPBKDXiWTM7PPTfu1v9XkY332NWz/PT/bQSS5Moc1JpFSrDA2W//t2HUkV4EWsn0fN/q5Ap9Zfayzvik/rfErvbK/cr3J8mVbfHBIT96JI/tr5K/1aY5pBp9zbmVyRVlnzVo1Ru7aqMVa+eaJFdUDSEYNcqduxauBrydRyRmxEOol5fIhxH4jXxGwLd3uyq5XiV2daTOeH9WllzZrgE0HnR7rAkWJNjbUM/3o9ukZIPAGevW/6uR65VjV200ZZ1cs+SKEcNWRU/dZzkaaWUFeAgpW0e16kqa0pWacyuR666xq3Wase7VWXJF1eCPqVHw0mvhX4Jfl5VgBVgOBoz2F7NwWSGfUp3JXbcCuaLXxh4LyOESzqP3JdfWmBZRRK5Q2CAciy0IsadRQFmtrNVQX1mttgoZcO7d9uiRbQ0fc1fs6giUfTyjiFxRVCvr9diY4CpAfF+JhQhC/enp1zcLYMQIq/dG60Od2ktx1IOefc9yUuxqu36seGcxuUJpe5S+9l7EpsKihUX6w0dfvPo9f++Jadf/Xjlltdqr9j3cW455JFcYApbuqhROil21193YE4rJFRmAZFKCvOI5KCcah5ItAizd8UauKM+IntU9/BS7aquzudyryBUkA7K5J8irHvP2mZqcQFc9z9IfT+RqPQ6QwkzrX8xvCVXkiuKyZ22lFGT2Obz5lcYgwJK1B3KdHbvqAYMxWuP7KdXkiupYTCxgNS5WPnIHjFVcltxmE4tiV8fqjeenNZErKsRcMYvVsJj5zG6knpWGXTa4m1iyQ/zojKXyUIeZsatyX7G1sj+/ZnKFMl2VYBVk3a9YuRygPy8/e/aA6A8WsR7zQbQJfJ4I17NOil21RnjN/JvJFdWFb+lqA1wiVltFhs6MtvBAtCByizQ7dhUvKSWfCHSRK6r0+Nbmrpx1tEBG7qtrZaekcLNYWamlOoKQKMRMMwgJeSh21U5frpBzN7kCBCja6i4CWaw26gxLdTapnsm3d00LvChmxq4CUyX/CFDIFdUEwVp8f/zcMNj/4daYMQDiXzX6S4gu8ywSKtETWJ61RKXY1X692CUHGrkGwFYK04K1LWINkuNtQVizuswlpHq8BuRf0mtBnWb1zrBgvaJXePo5Kic6uaLgUIRZinhsOLF9WKvyr9qoGF5Wnq3VmE5gkC2WQL6z6oTeIMNHHKubjtshYEKuobiYghdT5lnHMeuqtisY6qNtGgHM3ptFQgx9gm/4SGTYHx3ZEOohAyCtayucNSVXAAAi87DgC0hVXSs7lYR1F4hh5S16XCDVxyiYj6fUSe4qOz0dmbM5uYbKgGRhyY6Oi0W3SqQapGCzvQqxhpcC+1PsId+SLcYsjtazjcSU6wgEhpFrqAwUB/5Oy8gCvPnxDHX/A+p226sRawkBWlwDo4P5ySM7iSvnUgSGk+uxYCBaKBTcBiyLVkutHRG23V918MqCHHvy1DiArZ7Oyn0quR4rDQXrUdBwr8j1iKrdPl6MM7vPQd6rb6Wvdjo6O2eR62wJLPp8b7OuViNZxa4uqvgVxRa5VoClSx8RgD97NTLzVF7Fru7RkkSue8iZVku4A1aOZZ1JsopdpanhEhmJXJcQk59Cjo5ZRuQH/PGw9uCfRKgS/uPHGgQdQbiKXfWjw6NKInIdhfQFnoN44RFEBCJFiFdJKB2iTUC48GGOKFvLMxS7egHlb6iCyLUBtF1vsYxNBmnBKi4h1Bj+IGRPJKvY1Zik9jguct1Dzt21BOm1WG0l96DL3EOq58p5GHCD24JZp3Md9d8/AiJX/zJyUUIrXyvytUiPExx+Z/ZCSL00FLtqIdH18hS5riez4SW2ihCAhWmZYDnCKk4RIfOcYlctpble3iLX9WQ2vMQW6weMsu4eXwz2FqxiV4erpfsHilzdi2h+AdkDWVaugBhScBEwLdRjXopdjaGu4yJX6UAWgSOZ9O6j6wxrcnSyGORS7OpoKa71PJHrWvIaXlp2bOvMZfWYYVog1hkvieEKoAc2IyBybYZujxvhG+21VsP9CE+amZgvCpCrkhBIISByTaGjc7dppoEce7cevggBgu+tR7hf6iEEUgiIXFPo6BxtzVYM/HhITN8rBsqUhEAMAZFrDBkdvyEQrLTe7egIgZj4mDPNEKKmJARiCIhcY8jo+O0LqL2kGu73RESsga1RsbpSxTURELmuKbchpWYOAHnqQrPidkWuQ9Rw2YeIXJcVnX3BmeRqX9ryJ7AiILy4OsprritHIiByHYn2Ys9CTGro1vduPVWdRa6zQ8s8YaqyvI2AyPVtTHTkrwiwSAifhfGUWPUSuXqSqr+yiFz9ycRNieQW+DBpuYtc3aiqy4KIXF2KxUehRK5pcsXAmJIQiCEgco0ho+MPTHL1FC3AmqUF94KSEIghIHKNIaPjF45z/TjZ3S8dvBO5qpGkEBC5ptDROQoJgay8dKGZa7taf0lB6rc2AiLXteVnXnrWbCYvEQPMtQXgNlESAjEERK4xZHT8hgBrNhOsVw9TYL99h+MSQH2UhEAKAZFrCh2de2BaeiC2mYn5LTCt5zpTkms8W+S6hpymlZLpo5xtvTKtVi8+5GmKoQdnERC5ZiHSBViLFcTI+MH3OuPzKKxZWQEDDy4OaaZvBESuvuXjonRYoCSQCmM7ukvNdAeE+s94QbhQBhWiGAGRazFU+17IXMAlkNP3738+BFC4NWAth+cytnIJDBHd8g8RuS4vwjEVYLoGAsFZE6wFsaLscgmM0bnVnyJyXV2Cg8rP9lkGgrX6RLWFKwBlxktGLoFBSrf4Y0SuiwtwVPGZ354KxBq2GMWH64GRUM7n7z2hugFCObHVlFeGlPbIQ+S6h5wptWQPbB1JC/vfvfvpbbGYlsLCmvzhoy/o/tVjGWW1tkhm33tErvvKvrrmltbrkcRgyb744OnDz1+mp5eiPD9+8pWppXosl6zWapXZ+gaR69bir6+8le/1SGLnfYz2w6oNP/hpz9dY/5fVWq8ru98hct1dAyrrj+43azEXa0Jk5s/yCVfCrcsXRkDkurDwZhXdIu6VSYTsvBTXOkvT1n6uyHVt+U0r/YvfPh3eNWeTZkl+cAfAt6s0FgFgDp87fOoYqLz3wzlc41U+ItexOnOZp8E9MMP3WUKIzGs0YWCMyoIkQaDwq7fKD/qIgdCfnn7tIhZZ5DpGdy75lMcZULxFXVobldV9+tKArdqCBDFLjz09OegD4p1ffvZsGtGKXG315/K5X5VgEdOrxEdgRDxyINewBXmDxEe7D0SufP3ZLserDXDh67BKXARmkGog1+N2JMmKXLk6tG1uIFgM/hwVecV9WKwgAiUeAhh4sur6t+oY/LvWcha58nRo+5xWdxEgAkKJhwD0wfOgJ2YCWn5kUuTK0yXl9PBwswY8N6iYpaOoAK76erRWY7KHFWuRRK4WqG6eJ7pbq8TBYraZpfWymypA9vBrxojM63EYBGw3gch1N+0fWF+QluepsngBsBvUQHjdPQpYrthrCYSPssOVwUoiVxaSyucuAmhwWOzF02AXuxHdrfhmB1cn1kCwGHhjEazIdbNGMKu6HkgWIVbyrfI14CrEyiZYkStf15RjAoFAsiPdBSBV+VUTQuk8tbIrIBDqeQsLtnfSgci1U7F0ezsC6H7B72lBtFjJCtNXextIe+32uHPFwaszkcb+46UBY6A1iVxbkdN9VARiCl57HP7dngZBrdTFM5uxcHqtPvRej/UJWpPItRU53UdFoLcRhPvV/aeKJZoZcA6YX33buoCPyDWqPjoxEgFWAxW52ksNPQPMbmLJbIV8WiIIRK72uqgnFCDAamAi1wKwOy/ZwR1w1kesM1ubRK61iOl6EwTOytz6X+RqIp5XmcKCa5VNz32I+Dj+ZsRN14bxiVxfqY12ZiLQ0/CO94pcbaXY86WAo5xS+yBOrE4GMssNTmI1NquIk3MZEZ6VK88RfZHrEQ3tT0PgrMit/0WudiIEtq1yKbkPpFprHR5ri3stwvqOZa8Z3BK5HqWj/WkIHBW4Z1/kaidCWJM9skndywyhA8lauQ0wkFeaRK6lSOk6UwRSDa/mnMjVRkyYjFEjh9JrQYItI/G5WiJPq5ljpda1yDUnJZ0fgkBpY8xdJ3K1EZfFEpIgP8sZdPCPYqZeTmdqz6PcJWk6ueILkPgcLuszEOheKK2HQK2Cx64XudrIntU+g9zgG60ZHOqplYUFW/JSmEKu+NwtppWxBRYEhxHNmZ/U7VGEXe8Nsuvdilz5GsQOv7JyBcRqDhJnD3SVDGwNI1dUEJ9TsCLUWKMEiavBxdTOz/GY/GqPS9Z8mbInDSB8anRivyBKXAPm5ArzGSvnjCbVc6OENauGN1qly593llfrf8m4HPPSK5ndakwEmJXYfuOcW8OUXD1+pAwkW+IvmaUAuz63lUzP94lcuRoEAjlj3PN/pnxQF2aIVq4uJuRqGQbRI9hwL6xoEL+SHwSCbHq3OYX3U+M1SgI8e2US7kec7OzEdHHkBs/p5Aq/agDT+1ZW7GxVf/18lq6IXF9jytjDwA1LNjN8rWcM0Gtl1Sfn4qCS64qrksOKhaWtNBcBlsKLXLlyZFp63JK158aKHMgNalHIFb4MptOb1dBK8wHBenirtqvL+neWyip3nciVqwuwznKYl5xHML+XxBzYStWpm1y9+1dLBB+uKZ3WlgJU5+9wVV0AABDSSURBVNoQCDLo3Ypc2/CP3cUi15x/MvZ8i+PQkV49C/enytdFrrBYr7YiuQg2pS5254Ky9m5FrlwZ9coj3F8SdM8teTw3JrmmIo+ayXV1V0AQ+r2tCDaumFZn7smh5ZjIlSuhFhncu8eTXJiDWql6NZPryj7We8I/HtMgF7eBluR2xL9nP6XsJeXQNW8i0COL473e5HIsW89+ql5N5MocQeypmOW9cHfAOlcagwBLlillH1OTaz3linJxa7lCeVmAe8+n55vl12pi9rVh6YLIlSsr1owmT642JofRfK6w5NBlZjWEFfJRiBa3scZyY+mCyDWGcNtxRQt8mOS7FKpVbgFmfBirMVnng5eJ3AMpFeKcY8lR5MqRR8iFtdi04lwDone27CW7co0Jsyjw1sQPPl78MDcZ/0cPpuGlomSLQE4fSs+LXLlyYo2vwEjxklj8gXxSqdhyxTz8UgVvvQ6FhTBLpqPCmoQfh/VmzZU55VtJAaxzZQjk8C89L3Itw7v0KrSxUuxz13lwsTEHs2DopVIRuUJhc8D1nIeV2gM8ALP8MiXq5mFFn5QgVz/Xoz/He0WuXE1gtn0PbYhliUPnkFcqFZGrlXWIkUjmzA2QLMvkPzbYsC/fa0qV+s4FjHu3Itc+Ody7u1cmx/tn9gDZA/I5gzBLrkwz+ggyrNWS7v89YeeOWVmxuTdVrlw6H0fgqBs9+yLXOMatZ9D97ZHJ8d6Z1ivTakWdcsZWllwtIgRgXeYK1qoI4T7mOpRBOTCxQMkGgYBx71bkypcPuy3NkBGMRGYYaW4wC1LIkit7YZYRxBrUi/2mQsO3srZDmXfd9pJquH9Gw726zNiRQiC5ke4BGHJsd2FJLzZJrlDUoLSM7ehP6kLp2f5ihWXZUAlDv5CHyJUvHwvX4EgjCzMtWfoV8il5OSTJle0SyDmA+WrxcHM/sFYeB7ByDVhI6YGm/CJXrnwsPzKK8E5r96DF11FKXAKQQpJcmaZ0LiaMqxJv5saM1QPBlry13iyB/uUQCBZB71bkmkO67DxcAaNi2y1cbRaugKCbpeskRMkVhQuZMbazlZ75ophhgZc1iXWvYugY8pitZ+tK4HXJR39kFD7Yl589e12Azj3oAHPw6qibcG2WWttRckUBj5n27M+0WoOcQIg9dTjeW+LMDs/VtgyBI749+yLXMrzvXQXs2APYNbLEs3tIFuW3trZr2n6UXJnhF6Vm9D2BM4+xlk/z8LJg4uIhr5pGmLpW5FovTVhiLz54SjM+UvIpOYdeJsrz85ffZCsDlwIsbWbPNFbGGqsVBY+SKzOMqdSMziLZeQErcgCCVOIiEFPo2uMi1zq5oEdn1YWulV3selij+GFwCqQb/o8uNwzOmhQlV9asDE9ExBzYqgFZ1+YRiDWs2uMi1zzWuAKDshYhSrXyWuX6Fh4zJ1dPcaFoeCxhlqmwripFgCUXkWseccvwKpYcveXTolfm5FrjAM6rRd8VzAgIL66OPkT83M1qTC2NwA8KtiUZFV7FkqWXfFo5LEquLH9GrZ/CVr0UrG6Nb2v+rIYkcr0vgdHhVSx5zs6nZ/A6Sq6sSnlT9qvW636TWueo5GIjK7S/meFVLLnOyKc2OuAswSi5sqaMtprU54Ky/rOE5O2lwcJnVj6SCxd5b+FVLPmOygfE2jtzLEqurGgBT+TKXIBCU2C5ZMBqNHrpPdy+6sFy67HkslI+DGJF6zAn15mL456bPxoeS8jwYYlgzwi3/2fJZWdyVXhV+jPYJToGYmXpUJRcWQH3nlaRYs46C4JCYLNItp1Uw50Bz94tq2GEcq2y9RJeNWKmVK+OxO5nWaxBZ6Lkiu58rBC1x72QD8vVca/+mDWya8MOytSzvYdpy7HdZOAlvApjNAF79lKlLXpQew9eCr0+1rP+R8mVOZvJQzgWM8Y1JTgIqWfxibOAdvmfwrTmXGjgO+DmJbzq3rgK+AOWYI3sZl0L16VF3HqUXKGkrMp6cA0wXxYluKDO6KpZCO2KxFGCack1O5Ar6ughvAo9wZS1hx6rZW+xRB9S14D8wQtWKUqueGCqYLXnLCuRAwcEN2v0FM/V4FdOQjxduzK5Qo89rF4FUqrpjXq0Yq2s1aOmJ8mV+daZab0y/ce1L5Xj9Rr8Oqrem/tHnHr2r0quXlavwkB3yxgKXgxoh7NdBeC0UTqSJFc2Kd3zzbzZxPj/0G2ZZbXGSEKDX2/LOYZV7fFRDeftGtgcAZF5WL0KpMj4AkcgWdYkpVL9gKU6WjeS5ArBlha+9DqGgErVGIL0HBqiwa/XkizVn9x1oxvQ6xrw97yEV2H0H22JneAuYIV83tMLtC+4L1osbUZdk+SKB7DJCVZkygnOqFTIw8Mb/57Qz8c0+CWfa9BZbNE+0Ls568no/8fwqmP52PsgbhAtSLyHb1BekPVMQj1ikyVXFJQtVGuChbAsPqnLxuGc386DX2csWv+vbrl6Dq86EoflPtov5IheLlyJ+IF44S/FD138cBykjGstLOveOmbJFYVuVfTcfQCGndAF6Hn75co86vwug1/QL8QFs3CF7DGiPqp3xNJfEMQK4VWs+u6QT5ZcAQLeFCzlP+eDrjvLJ4JG6m3w6lzf2v9XHPwKhGrttgFZ4SXlmWiBxYrhVTuQY28di8jVYmDrTDJQMChaSwKpenjrn+vE/A+LbPWZX5Avur0zXoAeX1Krh1e1tNWd7ikiVwBiab0eSQiNAKOkKWsWjfSnp1/frJIZDfVY3tH7Kw5+zSTVs3zwkhoZsXKPTKDb1lb7ud73/rPCq+7VUccSSw6ewUEDmREADPIE4eJ3dev0XgOIHQMuK8z88uqqAblBp0enq4dXjcbT8/OKLVdUwiJyIEYeOl6+NqXHwS9YZ3ghepYjXlAguxFpt/CqEZh6f0YVuaIyVxiJr2nwK9UXZOYhFAlRICu5a4CbpRWr8CrvNGhTvmpyhUUywz1QQ4isa8N0XRAWc50FVvli+cwc/PJCJDFsYseBWcrP39L8FF7Vgtp17qkmV1QdlklMSa9yHGR6Tmh8owb2GDiOHvxaceLGEWdY24ywLVjBCq86t579/jeRK2BaiWSODahkH9PoUt1EkCys2lUseOvBL2Dl3b9aIndcA6x6ogkUXrUficZq3EyuVyVYEGap9QJSwSDf6BV+Soni3nUWg1+rW6xnnFosWLxwFV4Vo5k9j3eRKyBbacDn3IjO/2uI9awucJWshAVr8OtqxBp0AgRb6oNVeNW5Neg/EOgmV1hvlsuGBWW33vYQ61GVdhr8urrvHS/LlHtI4VVHzdf+GYFucg0ZruyDZRFrwALbqw9+gVhg3Vm/9GbnD8v8XvISFREiWu6VUcfmIkAjV1QDgp7dGGqfn7NOesVz1cGvlVwgtTpxvv44wKXwqt4Wsc/9VHIFbFA+WIJnBfX4H2tEjkpXGvxa8SXao3/B/6rwqlGt5RrPoZMrYPHuh8Xo/tEaGS3KlQe/YInv4A7oIWOre1s/Djhav/W8RwRMyDWA+9iF+r0rKxZWV2qQIpR9xHbFwa+R8axwPUBe+AGr8MPLCcfg51+ll9RDuKjjTGNgRFu44jNMyTUA5iEWFA2xNLQmlHvUdrXBrx6iyN2LmXEgz5oXIAbX4OK5ItGiXjVYjNJZPSePwBByDcVAoxkZcI/GBuX0SqoBl7BFOWGRXZEkcqTKcNVc6SUFPGCpK62LwFByDTAFS8OKaOGbApGvmmCpeLD2c4TIOo8XCjNBv1aOZmDjwcRWeZUjMIVcj8VDQwCRgBBbyRZdSSgk3vRX60LhJbEyUaQI2NKXCD1YbXIL9BjtQekaCEwn13swQsFAlCBdkOb5B+f+FYn0HhbhGOqLxpciq5XOgVhHEMkKk1uABXRd6VoIuCTXa0HMrc1V/Ip4WYxKnl9KCq8apQXjnyNyHY855YkrD36N9ofDRdDqcrLqDVi6RCgKpky6ERC5dkM4N4PVBr9gqc1IcEFYEWVtvgqvmqEB458pch2PudkTVxj8gsU9K832vyq8apbk5zxX5DoHd9Oneh38ArnNTCD2WiuTdb3Cq2ZKfs6zRa5zcB/yVG+DXzOt1gD4aOtV4VUB+f22ItcNZA5Sg+WEQRSWJVabD2J1PSS4TmrL3nK9wqs8SHtuGUSuc/Ef+vSZg18YxPGQgEELWdbco/AqD5KeXwaR63wZTCnB6MGvkXGtOUCt4l4VXpVDfq/zIte95P1WbUcNfsFi9JIs/K4Kr/IiXT/lELn6kcXUklgPfk2t3Onh8D/XdPNT1yq86gSu/r5CQOT6CgrtAAGrwS9P6LLI1csgnSdsVZbXCIhcX2OhvQMC6Majq5uy2krP4bMwnhIWSSkte+o6+G6VhEAMAZFrDBkdv608liKXmnOe4GRZriJXT1L1VxaRqz+ZuCkRBrtqCDR1racBLZZFLnJ1o6ouCyJydSkWH4VikusVQ7FmT+f1oSUqRQwBkWsMGR2/fdUhZY3WnPO0GHRNuVPXwr2gJARiCIhcY8jo+A0B1pRZLyPr+IpFijBrzo1el1YquRYCIte15DW8tMzZTB78rix/K0jYk6tjuGLogVkERK5ZiPa+gElGs7vRIHeEhdVYp6lr99YM1T6HgMg1h9Dm55mrSIHYZlqvrBAsEK4XN8fm6um6+iJX1+KZXzjM2EpZb7XnYAnPSFepxwzs9Mw2BESubbhtdRf7434zfJXfvcv9LDkGxpSEQAoBkWsKHZ27IcDsTsPShXsAHwwclb5//3Oq9Y0ICiUhkENA5JpDSOdvi7nUdv9z18NnOcL/yvQZhzpp8oAaRQkCItcSlHTNbQAnkAtrC4K1tGBffMBZeOZc3xluDangegiIXNeT2ZQSW1iAIC24CNj+S1jEz997QnUFBIKF/1lJCJQgIHItQUnX3BBgD2wFwsIWflGM6Peml589e/j2nY9NiBXl1KysXgntc7/IdR9Zd9eUtQ7qkVTP+yDZWlcBLFVrUkU5ZbV2q9BWGYhctxJ3X2VBYpbW65FoYX2CaH96+vXDz19+84pwUQb8x+/HT756YIdYHctw3pfV2qc/u90tct1N4p31ZS58ciYvz/+1dmun4mx4u8h1Q6H3Vpm5mItnQj2WTRECvVqz3/0i1/1k3l1jDDyxliI8EpjX/VlTdrsFpQymIiBynQr/ug/fxT2gBVrW1dHZJRe5zpbAws/HTCWv1iajXLDOGeFhC4tYRe9AQOTaAZ5ufTCZucUgRkYe7MkN0pe9EBC57iVvem0RGoWuM4PMPOWhsCu6qmyXoch1O5HzK3w1ghWx8nVkxxxFrjtK3aDOVyFYEauBcmyapch1U8FbVHtlgsXglYjVQiv2zVPkuq/szWrO/KjhCD8spvTWrmdgBp4yvgwCItfLiNJXRTDSvsJEg+e//sOQRbt9SUelGYGAyHUEyps+AzGiIK8R1mftM0D8CrXaVDEHVVvkOgjonR+DefmjVtMqIVm4LeAfVhIClgiIXC3RVd5vIIABo5kkixllmnH1hkj0xxABkashuMr6PgLojo9yF4DM8fVaWar3ZaGjdgiIXO2wVc4ZBEB4+LoBewlDECqsVEUAZASg06YIiFxN4VXmNQjANwsrE1ZtKeGCSHEt/KhwO6jbX4O4rrVEQORqia7ypiAACxTEe/ypm0+BVpkYIiByNQRXWQsBIbAvAiLXfWWvmgsBIWCIgMjVEFxlLQSEwL4IiFz3lb1qLgSEgCECIldDcJW1EBAC+yLwF4l82N+vltQEAAAAAElFTkSuQmCC;" vertex="1" parent="1">
                    <mxGeometry x="619" y="145.75" width="193.81" height="195.5" as="geometry"/>
                </mxCell>
            </root>
        </mxGraphModel>
    </diagram>
</mxfile>
